<?xml version="1.0" standalone="no"?>
<!DOCTYPE svg PUBLIC "-//W3C//DTD SVG 1.1//EN" "http://www.w3.org/Graphics/SVG/1.1/DTD/svg11.dtd" >
<svg xmlns="http://www.w3.org/2000/svg">
<metadata>
This is a custom SVG webfont generated by Font Squirrel.
Copyright   : Thank you for travelling with Fontourist com RWE
</metadata>
<defs>
<font id="JournalRegular" horiz-adv-x="801" >
<font-face units-per-em="2048" ascent="1638" descent="-410" />
<missing-glyph horiz-adv-x="853" />
<glyph unicode=" "  horiz-adv-x="853" />
<glyph unicode="&#x09;" horiz-adv-x="853" />
<glyph unicode="&#xa0;" horiz-adv-x="853" />
<glyph unicode="!" horiz-adv-x="732" d="M36 -25q0 59 41 95t98 28l24 -21l14 -11q52 -36 14 -87q-3 -8 -10 -31q-36 -73 -88 -66q-93 30 -93 93zM301 641q-22 41 7 129q3 10 0 52h11q44 154 107 472q36 91 36 183q11 14 28 77q60 206 94 436q7 8 28 106q14 32 14 70q0 45 -25 97q77 25 110 25q62 0 77 -63 q-11 -106 -64 -319t-63 -322q-15 -11 -23 -57.5t-26 -64.5q-14 -69 -52 -182q-3 -7 -21 -122q-15 -73 -49 -116q-3 -56 -35 -140q-42 -102 -49 -139q-18 -29 -46 -102l-11 -8q-14 -14 -30 -16q-8 0 -18 4z" />
<glyph unicode="&#x22;" horiz-adv-x="427" d="M150 2141q0 14 9 21t13 11l7 5q18 15 55 8q22 -42 38 -104q18 -102 22 -109q3 -81 14 -158q0 -36 -18 -122l-66 7q10 45 0 74q-15 36 -11 59q-4 41 -30 113q0 14 -22 150q-11 27 -11 45zM340 2134v62q0 36 45 47q45 0 63 -32q-11 -88 -11 -151q0 -73 14 -114 q0 -18 3.5 -51t3.5 -51q0 -70 -21 -113l-66 -16q7 80 7 66q3 14 -7 27q3 59 -14 168t-17 158z" />
<glyph unicode="#" horiz-adv-x="1759" d="M52 888q0 59 77 98q129 15 374 63q29 73 29 80q0 8 -4 15l-165 -32q-25 -11 -59 -13q-55 0 -121 41q-11 15 -11 36q0 25 23 63l14 30q36 -7 70 -7q49 0 143.5 25t141.5 25q21 32 29 122.5t19 119.5q-14 25 -14 55q0 45 28 102q22 29 56 31q14 0 88 -34q32 -42 34 -106 q0 11 -27 -172q-11 -21 -32 -70q-4 -7 -4 -10q0 -8 7 -8q133 26 172 77q66 294 252 344l45 -66q-48 -88 -111 -270q32 3 93 3q49 25 176 29q143 3 186 14q25 0 78.5 3.5t80.5 3.5q106 0 165 -57v-66q-158 3 -308 -18l-283 -41q-182 -29 -252 -77q-4 -36 -20 -102 q99 14 254 0q217 -22 256 -24q77 -10 92 -21q35 -18 37 -81q-80 -14 -342 -21q-202 -7 -300 -30q-15 -36 -15 -81q0 -48 29.5 -154t26.5 -165q-22 -32 -49 -32q-28 0 -77 47q-32 25 -47 97.5t-27.5 92t-12.5 57.5q0 14 3.5 41t3.5 43q0 28 -18 39q-25 -18 -133 -25 q-80 -3 -91 -59q4 -11 -18 -147q-3 -14 -3 -28q0 -45 39 -70q11 -59 -63 -133q-17 -3 -35 -3q-92 0 -106 95l43 311l-197 -39q-70 -18 -107 -18q-56 0 -106 36q-7 23 -7 41zM693 1081l150 14q14 8 14 38v59q-87 0 -123 -12q-41 -33 -41 -99z" />
<glyph unicode="$" horiz-adv-x="1532" d="M41 -290q0 52 25 122l43 116q45 113 111 338q-36 15 -102 110v80l77 -36q52 -21 81 -10q84 112 146 281q33 98 106 300q48 118 84 242q-147 84 -161 97q-84 62 -98 150q10 195 193 351l342 238q150 32 211 202q32 99 104 290q-4 18 -4 32q0 36 74 133q62 -4 109 -48 q14 -36 14 -77q0 -60 -47.5 -165.5t-54.5 -149.5q18 -15 40 -15q14 0 51.5 11t55.5 11q70 102 106 103q17 0 41 -7q41 -21 39 -52q0 -14 -12.5 -41.5t-12.5 -42.5q0 -25 32 -48q11 -25 13 -47q0 -44 -56 -82q-77 -52 -77 -98q-73 -59 -111 -161q-109 -199 -318 -627l-25 -18 q189 -224 168 -437q-29 -7 -29 -28v-24l-19 -10q-92 -228 -410 -330q-95 -195 -122 -605h-11q4 -118 -66 -220q0 129 20 738q-22 3 -49 3q-59 0 -143 -19q-36 -33 -69 -130.5t-67 -129.5q-3 -29 -26.5 -100.5t-23.5 -112.5q0 -29 11 -59q-29 -66 -45 -88q-32 -36 -88 -46 q-50 50 -50 116zM487 473q21 -18 41 -18q14 0 52.5 17.5t63.5 14.5q25 84 140 385q0 48 40.5 134t43.5 127q-36 25 -80 22q-45 -67 -124 -283q-107 -176 -177 -399zM517 1522q0 -26 11 -56q113 -81 150 -77q129 252 206 496q-70 -29 -139 -88q-42 -36 -140 -107 q-88 -113 -88 -168zM847 1312q73 -48 91 -43q14 59 66 159.5t66 148.5q4 14 28 47.5t17 58.5l172 374q-14 18 -41 10l-32 -10h-8q-80 -113 -254 -480q0 -25 -28 -70l-18 -20q-25 -35 -25 -71q0 -14 3 -31l-12 -10q-11 -11 -25 -7v-56zM850 605q11 -4 81 14q164 136 157 256 q-10 33 -24.5 72t-44.5 54q-63 -113 -95 -190q-52 -115 -74 -206z" />
<glyph unicode="%" horiz-adv-x="2190" d="M4 1214q-8 112 80 223q122 151 136 194l117 55q51 18 59 95q32 -7 48 7l7 13q18 25 43 28q256 88 342 77q7 -10 70 -59q44 -32 39 -80q25 -15 45 -70l7 -22q32 -69 7 -168q-11 -36 -62 -157q-22 -74 -147 -210q-245 -202 -476 -202q-70 0 -136 20q-138 69 -179 256z M195 1253q-32 -81 39 -134q29 -22 88 -16q29 7 88 19q109 22 166 74q253 234 253 428q0 35 -7 73q-18 41 -27 23q-32 -80 -88 -89q-55 14 -140 -33l-123 -80q-4 -36 -59 -70q-36 -14 -36 -70q-52 4 -70.5 -17.5t-47.5 -66.5q-7 -12 -36 -41zM283 7q0 48 32 111l56 102 q91 161 307 389q269 275 341 363l198 186q113 109 172 213v56q22 -8 38 -8q35 0 84 58q21 45 21 34q77 98 77 123q0 15 -9 28t-9 38v15q-3 18 -27 100q45 -52 108 -118q7 -4 14 -4q11 0 14 4q29 59 101 132q91 95 109 122q25 11 48 11q41 0 113 -74q14 -21 14 -44 q0 -45 -50 -84q-179 -147 -486 -500.5t-486 -500.5q-44 -81 -196.5 -209t-191.5 -217q-91 -70 -238 -337l39 -41q-52 -10 -66 -21l-18 -7q-21 -11 -39 -11q-36 0 -63 43q-7 27 -7 48zM1155 172q0 45 25 84q125 206 170 258q109 132 248 161q36 41 81 7q21 -18 81 -34 q17 -7 25 -11q21 -11 48 11q91 -36 109 -47q59 -32 74 -84q7 -112 3 -136q0 -59 -25 -143q-41 -77 -150 -143l-183 -109q-14 7 -30 7q-18 0 -50 -22q-49 -32 -52 -34q-74 -18 -136 -18q-126 0 -190 81q-4 21 -26 80.5t-22 91.5zM1350 143q0 -14 7 -25q21 -7 46 -9 q49 0 126 31.5t109 34.5q14 33 62 49l49 14q132 129 116 220q-11 4 -68 36q-45 22 -93 -29q-95 8 -165 -55q-25 -25 -109 -134l-66 -90q-14 -25 -14 -43z" />
<glyph unicode="&#x26;" horiz-adv-x="2008" d="M14 -147q45 66 104 210l260 395q132 206 223 417q95 122 95 301q0 70 -17.5 211.5t-17.5 210.5q0 77 46 298q22 98 81 175q55 0 100 -39q32 -45 70 -86q28 -77 28 -161q0 -95 -60.5 -280.5t-60.5 -280.5q0 -112 62 -216q36 -59 115 -297q62 -183 175 -274q81 41 172 139 q45 49 88 72q132 147 198 209q122 113 301 235l-161 -193q-32 -49 -52 -92q-32 -10 -150 -159l-147 -186q-18 -32 -77 -125q-11 -22 -43 -54q41 -22 81 -52q121 -88 211 -81q21 -14 37 -73q4 -11 18 -45q-21 -14 -116 -21q-213 87 -360 172q-252 -253 -531 -473 q-176 -140 -378 -140q-125 0 -253 63q-76 38 -41 220zM224 -260q55 -21 102 -23q45 0 107 31q95 44 117 50q329 272 553 517q-77 88 -133.5 203.5t-108.5 184.5q-7 67 -11 77q-14 36 -62 34q-63 -32 -117 -184q-41 -18 -68 -91.5t-79 -87.5q-32 -118 -175 -338 q-122 -186 -125 -373z" />
<glyph unicode="'" horiz-adv-x="168" d="M32 2186q-11 59 4 73l5 4q4 0 7 3l4 4q14 7 32 7q11 0 25 -4q22 -41 34 -104q11 -48 20 -104.5t16 -161.5v-52q-4 -32 -14 -66l-70 3q7 22 7 41q0 18 -7 33q-11 41 -11 59q-3 41 -25 114z" />
<glyph unicode="(" horiz-adv-x="1091" d="M32 363q0 161 56 330q18 21 38.5 96.5t45.5 109.5q28 84 104 238q10 41 50 62l19 15q26 10 26 32q0 11 -4 27q165 304 319 531q25 -3 28 15l7 32q4 18 20 37q109 147 158 197q94 102 200 147q48 -11 59 -73l14 -29q-98 -73 -195 -215l-170 -240q-52 -69 -136 -230 l-37 -60l-88 -128q-333 -473 -333 -1030q63 -179 77 -206q55 -98 165 -127h73q36 -3 88 -55q-45 -11 -140 -34q-66 -14 -120 5q-98 22 -254 242q-70 132 -70 311z" />
<glyph unicode=")" horiz-adv-x="864" d="M-444 -521q-11 63 22 88q55 45 59 55q48 74 164 206q4 36 48.5 71t41.5 65q18 32 80 72q42 32 40 70q48 28 101 115t78 112q220 293 349 689q45 136 45 324v165q-4 109 -4 164q-7 33 -45 136q-28 85 -28 135q-25 32 -67 173q-41 15 -48 50l-14 70q-7 18 -29 31 q0 95 61 109q113 -45 150 -213q41 -29 61 -115t50 -112q52 -287 50 -505q0 -634 -410 -1108q-3 -41 -45 -77t-42 -70q-151 -158 -426 -505q-41 -11 -75 -55l-65 -83q-32 -39 -102 -57z" />
<glyph unicode="*" horiz-adv-x="1278" d="M29 924q0 55 44 69q95 -10 276 11q-11 22 -59 111q-36 70 -38 113q0 55 52 106q81 10 113 -51q-4 -21 -4 -41q0 -66 86 -179q29 70 99 203v10l-18 36q55 0 81 52q44 81 80 81q32 0 77 -45q0 -22 -17 -58.5t-17 -54.5q-18 -14 -44 -64.5t-51 -67.5q-21 -33 -52 -99 q7 -3 38 -3l18 39l41 -29q154 25 259 25q42 0 74 -3q21 -11 28 -25q0 -11 -5 -33.5t-5 -33.5q-41 -21 -66 -21q-15 0 -26 7q-59 7 -153 -14q-110 -25 -154 -27q-18 -18 -45 -18q84 -48 231 -165q102 -80 125 -114q48 -59 48 -161q-91 77 -241 168q-213 129 -254 159 q-74 -172 -74 -300q0 -22 -3 -59q-4 -26 17 -63q-28 -14 -46 -14q-36 0 -52 46l-4 13q-3 3 -7 10v140q0 70 18 120q14 70 27 191q-98 -35 -213 -37q-84 0 -177 21q-7 27 -7 49z" />
<glyph unicode="+" horiz-adv-x="1270" d="M202 938l22 59q10 29 48 45q95 -7 179 -7q113 0 197 14q4 32 30 204q8 52 77 206l95 -4q-41 -73 -32 -129q7 -28 7 -50q0 -28 -11 -62q4 -18 -7 -129q186 25 222 27q81 0 147 -27l-4 -92q-41 4 -80 11q-45 4 -73 -21q-110 0 -215 -22q-4 -84 -20 -250q7 -70 -5.5 -86 t-71.5 -61q-14 -4 -32 -4t-38 4q-21 59 -21 129q0 41 9 116t9 115q-144 -33 -242 -36q-18 0 -60 -8t-64 -8q-62 0 -66 66z" />
<glyph unicode="," horiz-adv-x="658" d="M7 -337q0 11 5.5 29t28.5 32l7 8q22 14 25 34q113 171 140 220q66 129 77 248q21 22 55 22q60 0 81 -57q-14 -18 -16 -34q3 -29 -22 -117q-77 -272 -311 -436q-11 10 -40.5 20t-29.5 31z" />
<glyph unicode="-" horiz-adv-x="1211" d="M66 881q32 32 147 32q41 0 238 -11q183 -11 319 -7q55 0 153.5 -22.5t143.5 -22.5q52 -21 80 -109q-28 -91 -154 -84q-32 29 -80 36h-91q-29 10 -105 3t-119 18q-45 -3 -91 -3q-169 0 -290 37q-151 45 -151 133z" />
<glyph unicode="." horiz-adv-x="511" d="M70 81q0 102 84 102q29 -8 56.5 -16.5t34.5 -41.5v-52q-11 -105 -113 -118q-55 32 -55 56q-7 41 -7 70z" />
<glyph unicode="/" horiz-adv-x="746" d="M0 0q18 154 66 337q22 76 217 653q25 73 370 927q22 32 58 34q32 0 69 -27q26 -21 27 -98q0 -41 -9 -95q-18 -25 -44.5 -71.5t-23.5 -102.5q-98 -73 -93 -197q-41 -21 -73 -111q-45 -102 -61 -123q0 -52 -34 -73q-7 -70 -69.5 -204.5t-66.5 -211.5q-32 -48 -61 -143 q-41 -122 -52 -145q-48 -195 -111 -569q4 -41 -32 -84q-7 -15 -32 -59q-70 150 -45 363z" />
<glyph unicode="0" horiz-adv-x="1516" d="M14 202q0 77 18 228q18 18 31 64q3 36 10 73q29 67 161 430q60 84 77 118q42 70 56 127q45 84 145 229t141 219q36 28 92 91q-18 4 -101 -54q-10 -21 -45 -38t-42 -28q-22 -14 -63 -77q-29 -48 -77 -48q-25 0 -57 11q91 209 172 264q202 199 560 217q70 -7 104 -166 q95 -151 109 -183q52 -106 48 -209q18 -15 16.5 -53.5t5.5 -45.5l-7 -360q-70 -256 -129 -350q-92 -249 -297 -486.5t-455 -346.5q-84 -21 -158 -23q-315 2 -315 397zM158 217q0 -85 14 -162q41 -25 41 -66q45 -32 81 -44q227 10 417 195q52 35 205 231q316 406 323 952 q3 318 -179 492q-25 0 -68 -29.5t-61 -33.5q-269 -263 -509 -714q-264 -499 -264 -821z" />
<glyph unicode="1" horiz-adv-x="662" d="M113 29q0 28 9.5 87t9.5 90q0 32 -7 57l65 467l129 732q80 444 107 738q7 84 50 150q18 -7 59 -18q18 -3 59 -37q-10 -88 -84 -539l-157 -857q-88 -507 -97 -863q36 -29 38 -113q-18 -36 -92 -36q-89 47 -89 142z" />
<glyph unicode="2" horiz-adv-x="1542" d="M-32 41q0 106 130 326q36 21 67 98q125 147 308 416l297 424l168 224q29 14 58.5 67.5t48.5 68.5q25 35 67 105q14 33 80 147q56 91 54 150q0 26 -7 52q-33 25 -74 25t-102 -28q-84 -41 -102 -45q-25 -29 -125 -81q-81 -44 -109 -105q-113 0 -174 66q7 59 73 91l22 11 q36 18 45 43q52 32 176 86t180 98q175 4 227 -10q106 -29 169 -154q-26 -15 -18 -31l3 -10q7 -36 -11 -59q-14 -56 -77 -169q0 -52 -55 -108t-59 -85q-73 -95 -199 -304q-52 -8 -82.5 -70.5t-58.5 -76.5q-7 -18 -125 -177l-350 -491q-17 -41 -145 -224q-94 -136 -103 -245 q91 -52 231 -52q128 0 286 41q91 22 381 124q231 84 389 107q-36 -21 -172 -111q-59 -35 -115 -39q-102 -63 -182 -107q-113 -59 -195 -77q-190 -67 -451 -65q-95 0 -197 7q-172 52 -172 147z" />
<glyph unicode="3" horiz-adv-x="1630" d="M18 444q18 7 37 7q42 0 85 -41q55 -56 73 -61q109 -48 249 -48q220 0 454 121q210 144 249 183q129 125 133 270q-29 56 -106 83q-11 3 -136 21q-80 32 -136 22l-21 -29q-56 32 -144 32q-102 -3 -132 7q-45 15 -133 108q56 87 199 193l238 165q77 52 228 170 q125 102 179 218q7 25 8 41q0 36 -34 40q-76 32 -182 34q-125 0 -279 -45q-122 -4 -231 -66q-25 7 -99 -22q-77 -28 -114 38q-4 18 -4 32q0 25 56 77q52 11 315 91q186 59 318 59q246 0 385 -139q32 -109 -25 -204q-29 -45 -102 -167q-55 -48 -161 -157l-217 -138 q-125 -84 -198 -163q139 -11 395 -50q217 -63 276 -258q0 -340 -510 -605q-49 -3 -125 -43.5t-113 -47.5q-74 -22 -161 -22q-151 0 -315 59q-154 85 -199 235z" />
<glyph unicode="4" horiz-adv-x="1242" d="M59 1239q0 175 43 349q22 84 118 270q29 95 129 165q84 -7 99 -58q10 -69 -99 -180q-14 -18 -16 -61q-41 -29 -61 -108q-25 -87 -45 -112l-32 -247q-21 -15 -9 -40q18 -32 20 -55l21 -151q25 -132 195 -130q106 0 246 84l220 150q70 165 190 516q28 80 94 290 q15 10 34 55q15 29 51 40q41 0 77 -95l-165 -473q-7 -21 -32 -80q32 -15 32 -45q0 -18 -12.5 -53t-12.5 -49q-158 -172 -263 -612q-22 -8 -31 -63q0 -22 -14 -36q-41 -66 -63 -195q-14 -91 -39 -209q0 -77 -16 -219q-45 7 -131 81q0 32 74 420l105 367q36 92 38 126 q-59 -45 -192 -104q-80 -63 -190 -63q-84 0 -162 41q-201 144 -201 484z" />
<glyph unicode="5" horiz-adv-x="1381" d="M-102 993q63 129 197 341q154 234 206 334q-7 18 -7 43q0 106 87 108q15 0 29 -4q132 29 363 54q263 25 367 45q88 -4 176 -11q105 -11 164 -49v-84q-21 0 -211 -14q-105 -7 -195 -4l-18 -14q-136 -7 -308 -48q-238 -56 -297 -63q-32 -66 -117 -190.5t-117 -190.5 l-104 -151q11 -3 30 -3q32 0 107.5 18.5t112 24t106.5 5.5q186 0 335 -87q32 -56 102 -74q59 -118 109 -172q21 -70 23 -136q0 -102 -80 -234q-22 -32 -151 -206q-18 0 -34 -14l-10 -11q-36 -36 -63 -48q-66 -70 -183 -70q-44 0 -164 18q-11 21 -67 84q-32 36 -37 82h-18 q11 41 25 73q25 52 63 0q21 -73 121 -103q144 14 270 115t178 237q7 41 7 77q0 106 -70 172q-136 129 -360 129q-139 0 -263 -52q-28 4 -83.5 -3.5t-77.5 -7.5q-95 0 -143 84z" />
<glyph unicode="6" horiz-adv-x="1483" d="M118 417q0 91 29 217l52 216q44 126 164 356q-7 49 33 60q213 345 282 434q165 224 371 364q14 3 25 3q88 0 88 -69v-36l-238 -217q-129 -121 -187 -258q-21 -3 -51 -64q-11 -21 -25 -38q-52 -44 -108 -150q-55 -122 -88 -157q0 -18 -21.5 -58.5t-17.5 -67.5 q-36 -32 -70 -118t-55 -123q-4 -67 -22 -201q7 4 25 22l11 10q11 15 165 136q80 63 157 81q151 77 328 77q172 0 281 -77q143 -133 143 -269q0 -48 -18 -94q-36 -154 -242 -264q-300 -213 -569 -213q-136 0 -241 60q-59 32 -99 21q0 45 -52 136q-48 81 -32 143 q-18 68 -18 138zM304 301q-14 -92 63 -176q95 -52 238 -52q102 0 168 25q92 33 305 165q182 150 168 251q-52 118 -147 161q-66 18 -134 18q-176 0 -356 -99l-172 -132q-100 -81 -133 -161z" />
<glyph unicode="7" horiz-adv-x="1011" d="M-63 1955q-14 109 99 109h48q36 -4 52 -4q45 0 66 15l399 44q15 -18 57 -16t53 -10q164 -36 216 -61q158 -77 158 -276q0 -147 -81 -319q0 -21 -18 -66q-168 -315 -283 -608q-28 -45 -66 -129l-59 -133q-16 -34 -109 -252q-63 -154 -56 -260q36 -25 52 -66 q-17 -48 -66 -48q-18 0 -54 7q-84 48 -85 166q0 22 19 154q41 113 152 338.5t153 331.5q73 175 116 261q84 150 136 301q66 132 66 190h7q15 35 36 121q18 66 -21 102q-99 92 -312 92h-45q-41 -4 -73 -4h-113q-55 7 -150 -18q-106 -25 -150 -25q-85 0 -144 63z" />
<glyph unicode="8" horiz-adv-x="1235" d="M21 319q0 41 15 80q14 88 93 192l143 164q63 45 218 183q36 29 119 107q-246 263 -228 469q92 312 399 521q196 133 312 131q80 0 147 -50q48 -36 14 -126q-59 -76 -150 -59q-15 42 -40 42l-55 -22q-15 -11 -40 -12q-25 -18 -143 -88q-84 -48 -125 -113h-14 q-36 -45 -102 -140q-56 -80 -56 -157q0 -45 22 -88q80 -161 171 -227q319 209 434 385q-18 55 -106 127q-36 32 -59 59q45 63 109 63q18 0 38 -8q129 -25 161 -202q10 -175 -158 -329l-286 -217q-7 -36 27 -98q52 -74 130 -228q11 -52 11 -111q0 -241 -120 -395 q-109 -136 -349 -238q-293 0 -399 132q-133 165 -133 253zM172 263q59 -102 195 -172q199 -14 267 59q105 56 173 151q74 143 74 266q0 88 -41 151q-36 28 -70 100q-15 29 -56 77q-336 -260 -512 -503q0 -32 -30 -98v-31z" />
<glyph unicode="9" horiz-adv-x="1385" d="M36 1269q-32 337 324 714q98 81 179 126l249 130q189 33 254 34q122 0 204 -59l66 -66q36 -41 41 -77q70 -95 70 -256q0 -36 -3.5 -104t-3.5 -105q-14 -33 -34 -172q-14 -32 -84 -220q-66 -133 -192 -403q-18 -41 -64 -108q-84 -150 -346 -553q-41 -59 -125 -223 q-21 -45 -57 -45q-25 0 -56 23q-10 29 -10 54q0 52 54.5 130.5t64.5 112.5q52 52 125.5 174.5t105.5 169.5q-3 25 13 41l32 22q4 10 0 17q158 280 301 563q77 153 118 402q-102 -195 -290 -322q-25 -77 -154 -125q-143 -158 -396 -158q-44 0 -85 4q-221 77 -301 279z M175 1330q0 -45 11 -91q36 -22 104 -74q52 -10 102 -10q136 0 283 91l245 184q14 7 7 32q49 22 81 67q41 62 59 77q32 28 48 91q4 48 11 104q3 28 25 91q98 0 125 -18q0 29 -24 65.5t-56 120.5q-59 49 -154 49q-11 0 -206 -27q-22 -7 -122 -54q-70 -32 -109 -77 q-36 -11 -91.5 -59t-80.5 -59q-122 -147 -173 -235q-85 -143 -85 -268z" />
<glyph unicode=":" horiz-adv-x="442" d="M29 612q73 -14 77 -14q48 -14 62 -41q45 -56 7 -106q-41 -59 -109 -3q-37 28 -37 164zM48 1189q33 69 33 84q-8 32 -18 61q-4 32 32 55q25 7 107 -21q7 -4 47 3q-15 -41 -15 -59q0 -77 -39 -95q-18 -7 -52 0l-11 7q-14 6 -84 -35z" />
<glyph unicode=";" horiz-adv-x="809" d="M21 -59q183 195 319 440q29 25 63 25q80 0 80 -73q0 -11 -9 -34t-9 -43l-146 -131q-25 -41 -106 -114q-4 -22 -18 -29l-30 -14v-34q-29 7 -56 -11q-43 -30 -88 18zM371 1099q-4 18 14 118q77 11 143 -73q7 -18 7 -32q0 -59 -70 -90q-69 14 -94 77z" />
<glyph unicode="&#x3c;" horiz-adv-x="1553" d="M-14 1081q0 122 77 172q52 32 178 59t176 59q245 45 628 70q77 4 144 4q238 0 248 -74q8 -36 8 -63q0 -32 -15 -35q-48 25 -96 25q-33 0 -97.5 -18t-96.5 -18q-25 0 -52 7q-25 -11 -89.5 -9t-85.5 -14q-423 11 -714 -140q275 -263 780 -505q118 -51 417 -195 q95 -48 97 -87q0 -49 -129 -81q-29 11 -136 59q-118 52 -535 270l-74 20q-3 32 -48 43l-29 14q-73 70 -286 206q-190 122 -270 231z" />
<glyph unicode="=" horiz-adv-x="1322" d="M98 1001q4 14 8 55q0 29 44 50q187 -25 290 -25q126 0 221 31q98 7 196 17q110 0 196 -37l21 -95q-29 7 -98 18q-33 4 -63 -18q-109 11 -308 -21q-213 -36 -308 -34q36 -8 -111 -8q-66 0 -88 67zM209 668q0 18 8 35q77 45 193 67q165 28 199 41q112 11 300 25 q59 4 213 -25l-10 -93q-33 7 -59 9q-26 0 -83 -19t-98 -15q-77 -7 -224 -52q-95 -18 -285 -47q-48 -14 -80 -14q-25 0 -34 9l-18 23l-7 7q-15 24 -15 49z" />
<glyph unicode="&#x3e;" horiz-adv-x="1832" d="M256 319q0 41 84 87l371 199q451 245 696 514q-263 150 -637 138q-18 14 -75.5 13t-78.5 10q-22 -7 -49 -7q-28 0 -84.5 17.5t-88 17.5t-93.5 42q-7 -15 -15 -20q-7 0 -23 41l38 -21q3 10 3 35q11 77 228 74q55 0 125 -4q336 -25 553 -73q45 -29 157.5 -56.5t157.5 -59.5 q70 -56 70 -178q-66 -102 -244.5 -230t-251.5 -210q-18 -11 -25 -14q-41 -11 -45 -43l-61 -20q-315 -190 -478 -274q-14 -11 -119 -59q-115 32 -115 81z" />
<glyph unicode="?" horiz-adv-x="1337" d="M18 1994q3 63 63 88l105 30q63 56 143 54q235 63 444 63q433 0 643 -274l21 -63q-21 -143 -213 -283l-87 -87q-56 -49 -111 -63q-49 -52 -246 -179q-28 -25 -91 -70q-18 -11 -234 -157q-144 -99 -203 -199q8 -18 27 -50q25 -15 242 -45q41 -7 136 -63l-240 -18 q-209 0 -281 113q-25 41 -11 125q67 106 242 217q199 122 259 190q26 18 196 129q48 21 143 87l136 95q75 52 131 129q41 41 84 115q-42 164 -301 200q-206 29 -245 31q-63 0 -161 -13l-165 -18q-36 -21 -88 -28q-95 -36 -122 -49q-69 -32 -109 -73q-30 3 -107 66zM206 14 q0 25 21 45q7 4 25 29q95 -4 203 18q14 -18 14 -36q0 -25 -32 -59l-11 -29q-18 7 -27 7q-11 0 -36 -18q-44 -41 -69 -41q-26 0 -45 45h-4q-39 -2 -39 39z" />
<glyph unicode="@" horiz-adv-x="1945" d="M32 322q15 407 269 829q164 276 615 601q63 18 129 18q81 0 208 -32q154 -36 206 -45q440 -206 517 -542q14 -329 -161 -668q-168 -322 -444 -524q-102 -77 -195 -77q-73 0 -120 59q-77 91 -114 91q-26 0 -51 -11q-69 -69 -170 -69q-69 0 -130 37q-63 92 -63 224 q0 81 25 147q158 272 517 567q52 74 172 84h203q98 -52 98 -161t-179 -410q-63 -105 -158 -180q4 -26 -8.5 -69.5t-12.5 -61.5q0 -29 21 -56q147 45 316 264q304 399 304 674q0 144 -70 272q-245 283 -686 323q-202 -63 -377 -256q-25 -25 -280 -367q-132 -176 -193 -573 q-18 -315 228 -491q25 -84 69 -98q22 -7 73 -59t96 -48q139 -95 349 -127q125 -18 368 -52l629 43q55 25 197 51q128 26 195 63h168q-63 -59 -99 -70q-69 -21 -100 -48q-437 -158 -923 -158q-571 0 -1001 217l-297 301q-147 182 -140 388zM718 195q0 -36 9 -73q62 -4 134 36 l122 73q-4 18 -4 32q0 25 31.5 70t31.5 77q70 70 87 70q26 52 106.5 132.5t106.5 132.5q18 28 18 50q0 25 -34 34q-32 3 -105 -15q-190 -139 -356 -300q-147 -143 -147 -319z" />
<glyph unicode="A" horiz-adv-x="1523" d="M-73 18q3 195 150 426q95 154 168 301l-84 28q-45 25 -39 74q-4 35 84 98q21 7 43 7q18 0 61 -18t64 -10q52 80 161 238q66 70 143 184l129 190q18 45 72.5 123.5t72.5 121.5q18 11 33.5 52t22.5 52q-7 11 11 70q3 7 7 35q32 8 44 45q18 63 67 66q12 2 25 0q57 0 104 -26 q7 -59 7 -147q0 -84 -7 -201q7 -48 7 -96q0 -122 -45 -224q0 -52 -11 -150q7 -45 25 -131q29 0 88 10.5t89 10.5q74 0 117 -48q-49 -66 -95 -88h-48q-11 -3 -22 -25q-14 2 -27 2q-52 0 -87 -36q-4 -36 -4 -77q0 -112 41 -256q32 -112 70 -252q29 -48 147 -301q14 -14 14 -34 q0 -36 -80 -84q-81 32 -162 220q-28 74 -114 265q-25 122 -54 176q-7 98 -41 290q-158 -29 -462 -133q-55 -3 -175 -32q-49 -11 -63 -66q-147 -158 -245 -459q41 45 143 131l-86 -227q-25 -4 -36 -43q-25 -102 -164 -102q-29 0 -52 7q3 11 3 18q0 18 -10 25zM584 949 q125 41 374 93q48 3 105 43q-9 71 -10 181q0 55 3 119q5 120 5 194q0 37 -1 64q-169 -225 -476 -694z" />
<glyph unicode="B" horiz-adv-x="1501" d="M-55 150q35 22 69 8q25 -11 34 -8q56 249 179 693q7 22 -31 65.5t-38 59.5q0 25 37 43q84 45 109 178q36 175 59 218q0 7 4 16v11l7 14q4 18 -11 39q42 49 61.5 138.5t33.5 144.5q45 56 102 56q15 0 31 -7q44 -33 43 -77q0 -33 -33.5 -99t-33.5 -100q-25 -98 -80 -294 q3 -17 -11 -45t-14 -35q440 220 667 469q45 32 56 104q-95 80 -290 87q-102 0 -311 4q-33 4 -108 -7q-84 -15 -113 -15q-95 0 -139 70q-7 7 -22 33q-3 10 -3 17q0 22 19.5 40.5t82.5 26.5l39 10q7 -28 38 -28q10 0 40 10.5t47 10.5q36 0 74 -21h377q228 -15 357 -95 q84 -99 87 -181q-35 -55 -125 -165q-3 -25 -55 -59q-45 -52 -369 -300q-45 -11 -108 -51l-98 -62q-4 0 -11 -7l-3 -4h25q399 0 601 -224q59 -87 59 -188q0 -59 -27 -120q-21 -10 -39 -48.5t-41 -49.5l-22 -55q-32 -45 -110.5 -113t-112.5 -104q-319 -224 -620 -224 q-121 0 -227 41q-45 36 -90.5 80t-41.5 99zM224 129q0 -32 7 -59q20 -6 46 -6q34 0 79 9q118 22 124 22q275 136 381 216q209 154 254 346q-89 200 -283 199q-19 0 -41 -2q-41 28 -113 30h-136q-41 -3 -120 -23l15 -18q-22 -18 -33.5 -21.5t-15.5 -3.5q-14 -91 -73 -268 q-7 -63 -49 -209t-42 -212z" />
<glyph unicode="C" horiz-adv-x="1557" d="M29 422q0 102 48 260l73 242l206 374q122 220 256 349q319 433 602 567q52 7 94 7q103 0 158 -48v-64q-4 -33 -32 -59q-11 -4 -118 -8q-77 -3 -110 -44l-148 -95q-97 -63 -134 -133q-532 -531 -707 -1287v-27q0 -186 91 -302q102 -136 301 -136q55 0 163.5 17t151.5 20 q105 29 308 120q21 4 80 39t95 28q14 18 45 18h73l-3 -40q-74 11 -85 -3q-21 -33 -44 -38q-74 -52 -144 -106q-94 -59 -161 -62q-105 -74 -256 -92q-87 -7 -268 -25q-190 22 -330 124q-150 113 -186 290q-19 52 -19 114z" />
<glyph unicode="D" horiz-adv-x="1836" d="M-132 14q21 -3 46 -3q86 0 218 41q8 25 -7 70q-18 59 -19 68q52 433 166 916q32 63 57 177q29 136 49 179q-4 18 44 169q6 19 6 35q0 49 -61 54q-109 122 -111 158q0 14 4 28q25 29 77 29q32 0 76 -11q8 -3 20 -3h4l21 21q32 32 41 38q25 18 58 21q73 -11 121 -132 q-3 -11 -3 -22q0 -14 14 -18h32q8 0 34 8q45 -33 169 -45q461 -92 703 -365q125 -140 125 -324q0 -140 -80 -263q-48 -95 -294 -360q-28 -11 -78.5 -67.5t-93.5 -59.5q-132 -119 -443 -240q-22 -49 -81 -53.5t-77 -23.5l-272 -65q-172 -41 -292 -41q-91 0 -163 22 q-14 9 -14 34q0 12 4 28zM268 165q22 -52 18 -77h8q132 0 340 95l331 154q41 41 120 93q95 59 125 84q356 290 396 605q-18 25 -25 80q-4 25 -24 77q-91 140 -438 285l-251 52q-118 23 -211 23q-23 0 -45 -2q-25 -139 -98 -388q-81 -269 -108 -389q-28 -59 -28 -94 q0 -15 3 -26q-21 -84 -48 -289q-23 -185 -65 -283z" />
<glyph unicode="E" horiz-adv-x="1446" d="M48 213q-14 104 -14 192q0 148 39 248q36 92 81 253q-73 32 -70 123q22 22 73.5 39t66.5 27q3 56 58 155.5t58 152.5q29 11 37 46t19 47q55 95 175 274q-7 7 -113 31l-41 61q-4 14 -4 26q0 81 179 81h17q43 -2 75 -2q62 0 82 6q340 69 623 69q186 0 356 -30l22 -50 q-106 -32 -543 -77q-179 -18 -311 -70q-81 0 -99 -23q-17 -70 -93 -134q-44 -42 -102 -119q-35 -87 -112 -220l-74 -182q22 -8 40 -8q17 0 78 21.5t90 25.5q80 11 118 38q52 14 609 223l150 -14q-122 -122 -176 -122q-69 -66 -209 -121q-195 -77 -224 -95q-77 -18 -234 -95 q-99 0 -315 -84q-143 -301 -143 -550q0 -52 7 -96q48 -176 164 -187q17 -1 34 -1q169 0 351 134l374 281q4 -74 -48 -142q-14 -17 -106 -111q-268 -320 -576 -320q-20 0 -39 2q-281 102 -330 297z" />
<glyph unicode="F" horiz-adv-x="1435" d="M36 798q0 76 82 93q122 0 165 29q18 29 25 118q7 74 48 117q102 307 143 443q77 256 106 441l-48 88q69 42 164 41q20 0 42 -2q59 -5 103 -4q59 0 95 7q45 4 369 60q220 35 374 37q56 0 107 -3q4 -8 43 -42q29 -21 31 -43q0 -28 -31 -59q-14 4 -28 4h-22q-32 -7 -59 14 q-32 -3 -150 -32q-73 -20 -127 -21q-15 0 -27 1q-63 -3 -184 -46h-17q-57 0 -152 -22q-109 -23 -161 -23q-21 -18 -62 -18h-22q-36 7 -59 -25l-245 -782q-29 -32 -45 -106q-21 -87 -32 -114q11 -11 62 -4q63 11 70 7q74 25 220.5 40.5t211.5 33.5q98 28 195 30 q102 0 198 -34q-7 -48 -22 -51t-63 -10q-18 0 -29 -16l-564 -134h-11q-71 0 -139 -45q-18 4 -45 4q-45 0 -113 -15l-37 -44q-102 -378 -102 -498q0 -41 7 -77h3q29 0 36 7q22 18 52 18q-4 -125 -113 -190q-12 -3 -27 -3q-50 0 -91 46q-30 25 -29 77q0 20 4 41q4 26 4 47 q0 45 -18 63l98 465q-55 7 -118 22q-66 12 -66 69z" />
<glyph unicode="G" horiz-adv-x="1308" d="M-63 807q8 15 262 455q77 106 211 326q48 36 118 131.5t120 131.5q11 36 61 73.5t61 55.5q245 234 479 259q11 -10 81 -32q52 -14 59 -55q0 -45 -21 -85q-36 -17 -81 -17q-18 0 -66 3q-49 4 -66 0q-33 -7 -63 -37q-63 -18 -165 -120q-62 -33 -143 -136 q-88 -113 -140 -147q-73 -95 -248 -347l-231 -401q-186 -330 -186 -516q0 -190 150 -272q48 -11 102 -11q179 0 506 190q103 63 308 254q4 22 40 143q28 102 30 161q0 52 -23 85q-238 -42 -381 -185q-15 -2 -27 -2q-68 0 -104 65q29 88 127 139l168 92q176 52 193 57t35 5 q21 0 55 -17q22 -4 27 -4q7 -14 61 -63q45 -41 45 -139q0 -151 -63 -323q-41 -98 -116 -304q-4 -36 -42 -168q-26 -93 -26 -143q0 -11 1 -18l8 -9q14 -11 14 -22q0 -7 -7 -18q-25 -25 -63 -25q-25 0 -55 11q-52 36 -51 117q0 41 18 121.5t18 119.5q4 11 21 50.5t17 53.5 q-399 -363 -759 -363q-36 0 -74 3q-332 160 -334 369q0 225 139 508z" />
<glyph unicode="H" horiz-adv-x="1469" d="M-63 132q0 119 67 333q80 264 94 342q26 11 20 22q-18 25 -20 32q-105 41 -103 111q0 11 1 21q33 33 74 33q11 0 36.5 -3.5t36.5 -3.5q29 0 43 48q29 98 147 395l122 573q14 32 121 50l106 -80q-32 -25 -38 -47q-7 -32 -14 -44q-25 -154 -98 -323q1 -9 1 -21 q0 -54 -30 -125q-41 -103 -45 -144q-45 -95 -95 -286q203 25 795 147q14 10 35 58.5t35 62.5q84 246 272 722q14 11 34 57.5t47 60.5q16 82 64 82q7 0 16 -2q56 0 88 -73q11 -11 25 -34q-70 -73 -120 -208q-56 -150 -100 -213q-22 -94 -158 -409q-18 -22 -18 -92.5 t-36 -88.5q-195 -491 -195 -788q0 -139 38 -256q7 -3 25 -5h7q59 0 45 -50q-7 -29 -90 -49q-14 0 -32 -7q-172 147 -172 415q0 169 61 392l77 274q-109 -14 -266 -59l-264 -71q-18 0 -42 -22.5t-51 -22.5q-21 0 -57 11q-48 -4 -132 -36q-11 -48 -45 -93l-66 -245 q-42 -158 -88 -239q-22 -84 -22 -128q0 -52 26 -79t26 -41q0 -11 -7 -27q-41 -25 -73 -22q-36 11 -74 18q-34 86 -34 177z" />
<glyph unicode="I" horiz-adv-x="791" d="M209 136q8 113 43 403q85 539 276 1099q18 52 71.5 138t71.5 127q36 41 127 39q49 -36 49 -91q0 -36 -22 -84q-36 -22 -59 -63q-11 -25 -32 -84q-18 -25 -38.5 -98.5t-58.5 -105.5l-150 -541q-81 -300 -84 -553q-45 -73 -43 -172q0 -77 25 -150q28 -21 18 -95h-7 q-83 0 -128 74q-14 25 -59 157z" />
<glyph unicode="J" d="M-580 -571l9 36q224 45 392 234q88 99 138 165q80 102 111 184q308 403 451 1491q7 187 46 566q8 63 67 77q21 11 41 11q28 0 84 -49l29 -48l-85 -651l-25 -172q-66 -448 -234 -833q-32 -125 -176 -399q-32 -70 -250 -309q-22 -45 -81 -99q-69 -66 -87 -91 q-272 -136 -337 -136q-48 2 -93 23z" />
<glyph unicode="K" horiz-adv-x="1564" d="M14 -186q36 290 147 757q136 580 165 752q-4 25 18.5 71.5t22.5 67.5q0 15 -7 25l116 545q52 73 45 112l-22 29q59 52 124 52q29 0 63 -11l19 -41q16 -32 16 -50q0 -22 -18 -45q-44 -77 -80 -252.5t-84 -252.5q7 -17 7 -37q0 -32 -29.5 -96.5t-29.5 -86.5q0 -18 12 -34 q260 151 281 165q162 102 265 195l494 308q22 7 42 7q28 0 98 -70q-4 -70 -84 -132q-106 -22 -290 -138l-272 -184q-138 -88 -186 -113q-102 -70 -169 -133q-102 -48 -125 -95q-36 -84 -36 -161q0 -150 151 -297l277 -231q122 -105 251 -114q14 -22 73 -36q14 -7 57 -27 q-60 -34 -120 -34q-30 0 -59 9q-84 27 -114 27q-4 0 -7 -2q-403 168 -652 532q-14 -15 -19.5 -71t-32.5 -90q-70 -238 -168 -740q11 -21 11 -48q0 -18 -4 -32q-25 -45 -66 -45q-40 0 -81 45z" />
<glyph unicode="L" horiz-adv-x="1106" d="M59 186q29 381 161 807l253 788q-18 14 -18 38q0 32 32 69q3 15 30 95q15 52 74 70q28 0 95 -70q3 -7 32 -25q-15 -73 -71 -225t-67 -237q7 -17 -13 -30v-4l-7 -3q-52 -41 -80 -165l-29 -195l-21 -18q-36 -95 -79 -300t-83 -305q-10 -70 -30 -249q-2 -23 -2 -44 q0 -95 54 -147q125 14 347 82q319 95 496 113l77 -59q-157 -95 -252 -99q-15 -21 -34 -25h-40q-18 -3 -30 -27q-18 -7 -179 -53q-36 -25 -128 -42t-130 -48q-70 -3 -134 -3q-84 0 -111 59q-117 25 -115 202q0 23 2 50z" />
<glyph unicode="M" horiz-adv-x="2169" d="M-147 -73q11 102 77 268q74 179 88 260q21 112 94.5 320t104.5 320q44 172 164 525q118 340 161 524q88 36 95 42q70 0 104 -90q23 -54 22 -122v-19q14 -11 17.5 -46t17.5 -47q-21 -133 -28 -473v-52q0 -243 62 -336q88 48 194 143l184 161q32 45 95 95l102 84 q304 301 345 335q199 186 367 308q42 28 77.5 28t69.5 -28q14 -26 14 -60q0 -17 -8.5 -66.5t-5.5 -79.5q-252 -734 -426 -1397q-3 -21 -25 -128q-18 -77 -18 -128t18 -89q-25 -70 -115 -200l-17 17q-45 45 -88 25l-31 67q92 553 489 1786q0 22 -11 11q-69 -45 -154 -133 l-139 -150q-18 -14 -106 -95l-433 -392q-21 -48 -98 -105.5t-97 -82.5q-56 -28 -158 -98q-198 3 -245 206q-14 175 -32 350q14 60 14 70q0 22 -18 45q8 32 8 81q0 59 -13 143l-351 -1133q2 -9 2 -20q0 -54 -32 -141q-52 -151 -54 -170q-70 -162 -104 -355q-23 -14 -50 -14 q-37 0 -80 25q-8 3 -49 11z" />
<glyph unicode="N" horiz-adv-x="1766" d="M-7 -161q0 14 14 73q11 49 4 70q121 349 322 1019q209 696 320 1018q33 22 68 23q95 0 67 -3q32 -45 80 -74q-3 -46 -2 -91q0 -163 43 -272q-7 -55 -7 -118q0 -81 14 -218q18 -162 22 -217q91 -517 258 -793q-7 25 32 73q11 70 68 202.5t68 202.5l238 682 q143 374 319 644q66 36 80 36q59 0 59 -54l-37 -80q-7 -11 -4 -45q-41 -11 -64 -84q-15 -45 -45 -63q-7 -28 -73 -193q-49 -122 -52 -199q-22 -77 -99 -216q-14 -84 -25 -102q-14 -56 -48 -95q-59 -210 -213 -650q-36 -157 -154 -340q-45 14 -127 46q-217 290 -335 895 q-32 88 -43 350q-18 66 -28 195.5t-24 192.5h-3l-179 -601q-29 -74 -74 -276q-41 -176 -93 -267q7 -18 9 -41q0 -48 -48.5 -150t-52 -149.5t-38.5 -159.5t-31 -175q-32 -69 -91 -69q-95 0 -95 73z" />
<glyph unicode="O" horiz-adv-x="1696" d="M-129 444q0 326 331 818q7 14 172 256q206 297 525 480q230 66 318 66q84 0 143 -41h51q234 -256 236 -553q0 -74 -16 -151q-7 -7 -7 -14q0 -11 3.5 -33.5t3.5 -32.5q-7 -15 -25 -33q-45 -216 -249 -488q-22 -18 -70 -120q-322 -326 -430 -412q-279 -220 -528 -218 q-32 0 -66 3q-55 15 -145 77q-247 113 -247 396zM70 455q0 -330 275 -330q210 0 462 231q186 140 208 197q157 158 251 301q195 304 193 619q0 109 -25 206q11 29 -24 60t-35 53l-67 59q-32 29 -69 30q-15 0 -29 -3l7 -16l-45 -43q-10 44 -32 46q-80 0 -191 -80 q-81 -63 -142 -77q-646 -659 -737 -1253z" />
<glyph unicode="P" horiz-adv-x="1439" d="M0 727q0 66 56.5 84t167.5 98q0 59 43.5 163t51.5 160q3 28 52 143q32 84 32 143q0 25 -4 52q29 11 39 60t35 63q0 15 21 88q18 52 20 88q-92 -22 -258 -99q-88 18 -102 27q-56 22 -56 72q-7 62 81 93q63 0 176.5 40t168.5 44q280 77 444 102q40 2 76 2q524 0 646 -296 q0 -87 -70 -171q-48 -45 -120 -140q-63 -41 -150 -147q-29 -11 -75.5 -54.5t-68.5 -54.5q-55 -25 -254 -161q-161 -106 -266 -143l-294 -154q-66 -203 -150 -609q32 -28 34 -73q0 -29 -42 -136l-25 -77q-7 -4 -44 -32q-11 -11 -29 -13q-11 0 -23 5q-11 25 -43 36 q-52 7 -49 59q-1 9 -1 22q0 43 21 120q25 96 25 137q0 22 -3 40q41 132 95 399q-11 7 -26 7q8 0 -125 -39q-7 30 -7 52zM444 1011l73 24q18 21 88 54t91 62q59 25 217 132q132 88 224 113q32 49 154 174l120 120q66 73 82 154q-56 98 -199 114q-80 4 -238 15q-21 1 -43 1 q-143 0 -265 -64q-95 -220 -87 -286q-51 -77 -52 -133q0 -12 3 -25q-70 -147 -168 -455z" />
<glyph unicode="Q" horiz-adv-x="1861" d="M-213 190q-7 77 52 139q91 95 102 119q109 66 213 136q7 69 48 186q45 132 54 182q73 190 192 356l230 326l256 206q169 122 283 147q99 21 194 21q118 0 173 -46q129 -59 161 -129q0 -45 -62 -98q-22 3 -33 0q4 -22 33 -97q25 -56 21 -95q41 -143 41 -277 q0 -187 -77 -332q0 -14 4 -46q3 -32 -22 -52q-48 -224 -180 -346q-8 -10 -18 -39q98 -73 265.5 -247.5t262.5 -244.5q154 -36 286 -81q-147 -52 -250 -50q-102 0 -154 47q-81 55 -256 231q-154 154 -267 209q-91 -95 -213 -193q-150 -203 -451 -203q-56 0 -108 8l9 41 q-329 32 -418 399q-85 -29 -172 -140q0 -48 -11 -55q-29 -29 -57 -29l-47 18l-18 14q-21 18 -66 15zM446 172q100 -106 229 -106q209 0 517 337q-129 80 -199 80q-161 70 -336 70q-315 0 -317 -143q2 -127 106 -238zM378 707q139 25 275 27q308 0 561 -136q3 -4 47 -9 t51 -36h4q7 11 23 31q217 345 215 699q0 269 -135 444q-87 29 -136 29q-51 0 -102.5 -24t-113.5 -94q-84 -95 -102 -109q-7 -49 -104 -176q-55 7 -77 88q-32 -29 -95 -81q-165 -268 -168 -282q-91 -151 -115 -305q-21 -18 -28 -66z" />
<glyph unicode="R" horiz-adv-x="1494" d="M-213 703q0 18 11 45q114 70 334 70h43l15 11q3 36 34 136q25 84 21 134l45 77q84 256 217 779q-56 18 -56 91q-7 36 32 63q33 14 67 32q32 -32 114 -52q45 -11 113 -54q122 -14 360 -73q297 -118 347 -151q175 -112 181 -327l-56 -50q-11 -36 -116 -154 q-151 -125 -381 -287l-170 -102q-88 -44 -308 -114q-18 -4 -95 -40q-41 -10 -40 -44q110 -70 302 -260.5t302 -257.5q62 -35 239 -84q52 -14 138 -18q77 -3 181 -18q-55 -55 -168 -91q-31 -2 -63 -3q-232 0 -437 123q-157 95 -370 319q-25 10 -150 100q-88 63 -162 81 l-7 -13q0 -36 -32 -149q-21 -71 -21 -116q0 -16 1 -27q8 11 45 81q25 48 91 46q2 -12 2 -25q0 -68 -48 -155q-57 -104 -56 -153q-28 -55 -125 -143q-125 25 -125 154q0 56 37 192q33 125 29 182q32 70 32 120q0 14 -2 27h-264q-4 32 -42.5 54.5t-38.5 43.5zM371 850 q139 22 409 154q239 118 389 220q48 33 265 249q28 59 28 104q0 32 -17 54q-179 98 -487 180q-22 -7 -45 -7q-32 0 -91 20t-85 20q-25 0 -48 -11q-11 -41 -46 -124q-29 -68 -29 -119q0 -11 2 -20h-18q-18 -77 -88 -272q-62 -176 -70 -279q-3 -18 -38 -79t-31 -90z" />
<glyph unicode="S" horiz-adv-x="1253" d="M-161 73q32 15 59 15q18 0 56.5 -12.5t63.5 -9.5q20 0 39 -2q398 0 834 362q88 72 86 158q0 16 -1 32q-22 73 -203 224q-238 146 -356 259q-161 84 -161 290q0 48 12 98q74 217 240.5 393.5t379.5 263.5q80 33 186 34q206 0 206 -82q0 -7 -5.5 -26.5t-5.5 -30.5 q-21 -41 -107 -104l-11 41q-18 -28 -36 -30q-14 0 -45 41l-7 3q-14 4 -34 4q-36 0 -96.5 -29.5t-89.5 -33.5q-143 -105 -190 -154q-95 -91 -136 -200q-35 -7 -80 -100q-11 -52 -11 -95q0 -154 161 -263q77 -52 288 -181l170 -168q95 -113 95 -206q0 -70 -45 -142 q-109 -143 -307 -257q-110 -67 -366 -176q-41 4 -77 -25q-105 -11 -195 -12q-195 0 -297 55z" />
<glyph unicode="T" horiz-adv-x="2058" d="M-25 2134q59 52 91 52q70 0 186 -111q119 -4 210 -4q157 0 238 14q32 33 34 97q0 14 -4 39v45q0 106 127 113q49 -22 68.5 -91.5t39.5 -80.5q14 -54 71 -54q20 0 45 6q151 36 287 84q146 14 388 73q84 22 374 77q29 4 128 24.5t146 20.5q154 0 192 -132q0 -42 -36 -56 q-11 -4 -27 -4q-18 0 -32 13q-52 29 -129 29q-63 0 -242 -42q-109 -3 -514 -116q-304 -84 -682 -175q-44 -11 -62 -63q-29 -81 -36 -88q-199 -938 -426 -1818q-27 -34 -56 -34q-21 0 -43 19q-17 15 -55 74l170 710q98 426 141 722q29 36 40.5 122.5t26.5 120.5 q21 109 25 109l2 -3q3 21 -20 59l20 18l-8 7q-121 -14 -227 -14q-202 0 -338 50q-4 7 -18 41q-7 7 -25 7q-4 25 -39 62t-31 78z" />
<glyph unicode="U" horiz-adv-x="1528" d="M-21 95q10 399 175 934q48 154 322 902q18 22 48 119q22 73 77 102q13 1 24 1q57 0 96 -30q11 -48 31 -143q-56 -45 -104 -158q-52 -125 -88 -164q-18 -85 -112 -312q-81 -186 -92 -320l-27 -15q-161 -594 -161 -812q0 -95 18 -174q7 -18 41 -18q29 -3 59 18 q190 143 491 616q63 77 148.5 240.5t134.5 230.5q189 359 385 1025q69 49 116 49q20 0 34 -8q48 -25 48 -77q0 -32 -35 -113.5t-35 -113.5q-17 -77 -227 -727q-140 -433 -177 -737q52 -18 52 -81q0 -25 -59 -189q-4 -11 -70 -67q-32 -10 -47 4l-34 21q-7 0 -39 -7 q0 24 -2 47q0 249 72 607l-181 -290q-32 -29 -87.5 -116t-98.5 -119q-206 -340 -462 -378q-213 81 -234 253z" />
<glyph unicode="V" horiz-adv-x="1546" d="M113 1833q7 73 70 73q62 -7 77 -14q41 -14 51 -55q26 -88 26 -169q0 -59 -15 -114q18 -36 23 -106q4 -98 8 -109q-25 -48 -27 -97q0 -32 18.5 -96.5t18.5 -96.5q0 -25 -7 -52q11 -25 9 -89.5t13 -85.5v-58q0 -385 139 -658q263 275 505 782l195 417q74 122 158 356 q87 260 143 362q21 25 59 27q25 0 57 -11q32 -36 34 -81q0 -48 -48 -147l-25 -76q-52 -106 -140 -339q-36 -45 -70 -123q-10 -29 -59 -136q-52 -118 -270 -536l-18 -73q-32 -4 -45 -48l-14 -29q-70 -73 -206 -286q-121 -190 -231 -271q-121 0 -171 77q-33 52 -59 178.5 t-60 176.5q-44 249 -69 753.5t-70 753.5z" />
<glyph unicode="W" horiz-adv-x="2201" d="M59 1581q0 21 4 53q21 4 66 31q45 25 77 0q18 -22 27 -97t27.5 -97.5t18.5 -54.5q0 -14 -3.5 -42t-3.5 -44q0 -29 14 -47q-3 -26 -3 -60t3 -76q11 -112 11 -136q0 -44 -7 -80q7 -41 5 -97q0 -36 -1 -79q-9 -107 -9 -155q0 -16 1 -24q8 -28 36 -213q22 -132 59 -205 q253 443 487 934q25 80 97.5 230.5t97.5 227.5q36 11 70 11q91 0 100 -86l29 -261q16 -135 14 -233v-39q4 -8 81 -326q48 -199 127 -312q14 25 188 473q283 727 583 1298q6 1 9 1q18 0 49 -9h48q-59 -136 -84 -186q-52 -102 -115 -166q-32 -99 -43 -127q-32 -77 -69 -122 q-8 -18 -140 -455q-106 -345 -224 -623l-109 -259q-25 0 -59 -29.5t-66 -22.5q-70 63 -203 329q-17 70 -50 174q-62 202 -87 465q-15 172 -31 271q-21 -11 -39 -54q-22 -56 -34 -66q-88 -242 -271 -650q-84 -186 -132 -278q-81 -164 -154 -264q-11 -4 -59 -22 q-32 -14 -55 -14q-15 0 -33 3q-143 231 -143 407q0 35 4 70q-15 87 -22 556q-7 346 -77 543q-7 9 -7 34z" />
<glyph unicode="X" horiz-adv-x="1523" d="M-315 -95q0 18 26 56.5t29 52.5q99 136 289 374q59 95 129 165q0 45 41 59q80 102 256 304q10 49 -52 92q-249 403 -249 759q0 43 4 84q25 55 114 63q70 -11 68 -81q0 -18 -5.5 -53t-5.5 -53q0 -32 20 -55q18 -308 218 -594l13 -11q147 136 326 352l308 369l39 23 q32 15 52 15q55 0 55 -56q0 -18 -66 -112q-102 -122 -308 -389l-300 -317l-15 -57q172 -186 491 -591q129 -121 234 -322q-28 -29 -54 -18q-14 15 -30 22q-73 87 -234.5 237.5t-230.5 227.5q-56 22 -120 116q-77 106 -115 133q-11 29 -70 73q-84 -55 -227 -252 q-91 -81 -367 -448q-21 -18 -77 -132q-45 -91 -105 -91q-81 0 -81 55z" />
<glyph unicode="Y" horiz-adv-x="1295" d="M-231 -150q14 69 81 105q52 29 55 66q133 103 249 235l220 261q45 49 106 158q32 32 77 102q-56 88 -47 129q-36 44 -111 252l41 14q-62 176 -95 441q-25 227 -48 451q11 36 63 102q14 3 28 3q49 0 77 -53l8 -11q3 -7 10 -20v-30q0 -99 16 -401q22 -469 162 -716 q164 190 350 576q29 63 161 290q33 81 81 246q59 28 89 28q60 0 58 -84q0 -29 -66 -165q-22 -41 -22 -80q-32 -14 -32 -41q-7 -36 -27 -54h-4q-35 -81 -252 -482l-157 -227q-4 -11 -85 -116q-44 -59 0 -102l-10 -45q-56 -29 -154 -106q-102 -105 -297 -342 q-56 -35 -217 -209q-125 -132 -256 -165v-10h-52z" />
<glyph unicode="Z" horiz-adv-x="1974" d="M-118 25q-7 95 70 165l146 114l921 553q125 77 195 126q272 186 340 241q186 144 300 287q-98 41 -324 39h-37q-364 -3 -661 -63q-32 -21 -143 -28q-95 -4 -132 -43q-102 0 -575 -41q-29 14 -30 55q0 32 23 81l61 59q275 0 705 64q553 84 693 93q61 4 114 2 q392 0 491 -159q-25 -133 -140 -236l-206 -179q-447 -330 -1224 -799l-179 -104q-95 -55 -154 -134q22 -11 77 -9q143 11 469 74l601 118q273 50 520 50q46 0 93 -2q44 0 43 -48q0 -36 -22 -74l-238 -28q-308 -36 -591 -90q-25 -21 -85.5 -21t-78.5 -18q-22 -4 -389 -88 q-238 -55 -388 -55q-156 0 -265 98z" />
<glyph unicode="[" horiz-adv-x="1043" d="M-32 -576q18 77 43 236q3 36 -4 43q81 356 151 634l37 146q32 140 47 154q21 41 26 118q0 -10 47 133q29 88 84 267q14 59 27 94q0 18 -4 27l128 444q55 154 150 466q7 44 27 120l46 198q81 52 169 40q32 -4 96 0q25 3 165 16q102 10 168 10h56q25 0 50 -3q3 -7 45 -41 q28 -22 28 -45q0 -29 -28 -57q-11 3 -29 3h-23q-18 0 -74 -7l-150 -23q-190 -25 -227 -25h-22q-36 3 -59 -25q-52 -154 -294 -947q-28 -32 -43 -102q-21 -109 -55 -192q-11 -28 -14 -36l-213 -825q-25 -87 -74 -270q-14 -66 -50 -202q-14 -49 -16 -99q0 -11 -23.5 -106.5 t-23.5 -106.5q22 0 36 -11l63 -3q80 -4 249 -14q59 -4 70 -4q21 21 55 21l21 4q18 0 31 7q29 -25 36 -55q3 -22 -18 -45l-45 -47l-102 -21l-245 -11h-56q-41 -14 -143 -19q-52 0 -88 48q-39 32 -28 113z" />
<glyph unicode="\" horiz-adv-x="2543" d="M125 283q0 77 18 154q11 52 52 139q29 42 65 117q118 154 282 265l81 53q80 52 311 144q29 0 90 31t98 28q11 7 120 35q22 22 74 31h14q21 0 38 18q21 0 73 12.5t77 8.5q66 15 202 31q36 14 109.5 16t105.5 12q517 0 528 -279q4 -106 -73 -218q-106 -154 -117 -195 q-112 -144 -257 -221q-8 -3 -70 -55q-18 3 -25 -4l-11 -14q-122 -81 -337 -175q-263 -119 -345 -165q-25 0 -75 -24t-68 -28q-29 -4 -109 -41q-67 -29 -111 -29q-56 -25 -144 -25h-145q-171 63 -188 253q-10 132 38 374q14 7 29 59q0 10 14 32q63 95 209 265l106 95 q-36 -22 -136 -74q-59 -48 -183 -139v-4q0 -11 -7 -18l-73 -77q-66 -66 -70 -73v-38q0 -28 -32 -50q-11 4 -20 -16l-3 -7q3 -22 -26 -61q-7 -102 -7 -140q0 25 4 -66v-70q52 -125 102 -168q14 -18 174 -107q21 -4 65 -13t65 -12l20 -18q7 7 21 7q11 0 25 -4q4 -18 0 -34 q29 11 56 13q48 0 129 -41h-206q-14 -7 -41 -7l-106 25q-62 14 -105 10q-187 81 -247 228q-58 103 -58 254zM521 279q0 -48 25 -73q55 -41 161 -27q118 14 412 97l7 7q32 18 46 14q88 29 255 102q18 -3 102 38q21 18 87.5 40t87.5 44q283 122 514 336q45 42 32 74 q0 206 -589 234q84 -44 70 -157q-7 -7 -11 -7l-9 -4q-11 -11 -36 -11q-28 52 -153 88q-99 -4 -459 -98q-10 -15 -44 -34l-11 -4q-7 -4 -22 -22q-164 -66 -289.5 -216t-168.5 -326q0 -14 -3.5 -47t-3.5 -48zM546 66q18 -11 30 -30q49 -15 102 -15q102 0 256 56l246 88l37 18 l-41 -15q-77 -18 -227 -80q-29 -7 -179 -33q-102 -17 -224 11zM1931 1262q8 -4 20 -9q315 -32 396 -231q10 41 10 70q0 122 -205 147q-88 28 -197 23h-24z" />
<glyph unicode="]" horiz-adv-x="1172" d="M-403 -616q0 29 29 59q7 -3 25 -3h20q-11 0 208 21.5t209 21.5l21 -4q32 -7 56 27l129 403l168 535q28 36 43.5 100.5t54.5 192.5q11 26 16 33l219 818l77 270q14 66 52 202q14 45 14 95q0 -3 30 108q22 94 22 105q-22 0 -32 11q-15 0 -290 30q-56 4 -67 4 q-14 -22 -48 -23h-21q-18 0 -25 -8q-29 26 -38 56q0 7 63 91q32 4 94 18q33 4 77 4h203q36 14 132 16q41 0 81 -52q36 -36 21 -115q-18 -77 -45 -234q-3 -36 0 -43q-80 -360 -153 -627l-67 -254q-14 -44 -21 -46q-22 -41 -25 -118q0 7 -11 -29l-77 -231q-25 -77 -41 -132 l-25 -95q-4 -18 -4 -31q-41 -147 -136 -439.5t-143 -460.5q-21 -73 -29 -122l-52 -195q-73 -48 -153 -36q-29 4 -88 0q-56 0 -111 -3l-113 -7q-55 -4 -88 -4h-48q-25 0 -47 7l-41 36q-28 27 -25 48z" />
<glyph unicode="^" horiz-adv-x="1832" d="M480 1679q0 88 104 286q153 301 281 480q44 29 114 123t116 122q74 45 188 -3q74 -106 123 -319t90 -308q4 -25 4 -28q-4 -45 25 -59l-7 -67q52 -363 66 -546q4 -14 7 -132q-62 -77 -104 -77q-48 0 -60 115q-15 164 -42 417q-51 517 -200 843q-242 -186 -378 -536 q-21 -10 -40 -63t-40 -69q0 -52 -59 -120q-29 -45 -129 -143q11 -11 11 -14q0 -15 -43 -11l32 25l-38 30q-21 18 -21 54z" />
<glyph unicode="_" horiz-adv-x="1337" d="M45 -32q25 70 87 77q99 10 113 14q294 77 867 77q112 0 207 -23l38 -40q0 -28 -27 -62q-179 3 -523 -25q-406 -33 -632 -88q-71 11 -130 70z" />
<glyph unicode="`" horiz-adv-x="200" d="M32 2186q-11 59 4 73q7 4 12 7l4 4q14 7 32 7q11 0 25 -4q22 -41 34 -104q11 -48 20 -104.5t16 -161.5q4 -63 -14 -118l-70 3q7 22 7 41q0 18 -7 33q-11 41 -11 59q-3 41 -25 114z" />
<glyph unicode="a" d="M-91 136q0 260 50 396q129 352 510 619h59q84 0 84 -98q0 -33 -21 -133q-18 -48 -81 -125q-11 -25 -88 -50q18 95 58 146q3 11 19 58q4 7 4 23q0 11 -4 25q18 14 18 25q-21 4 -77 -61q-10 -7 -37 -34q-378 -433 -385 -784q14 -105 66 -118q125 32 217 192q102 91 182 329 q41 91 151 465q14 33 80 56q32 -36 34 -81q0 -25 -14 -70q-14 -55 -20 -73q-147 -403 -147 -535q0 -172 70 -235q15 4 93 49q67 36 81 36q3 -18 3 -36q0 -70 -40 -89t-133 -69q-2 0 -6 -2q-48 0 -148 59q-4 29 -29 99t-25 111q-28 -32 -41 -59q-136 -168 -158 -190 q-87 -77 -187 -77q-20 0 -40 4q-98 77 -98 227z" />
<glyph unicode="b" horiz-adv-x="966" d="M-73 154q59 -14 118 -66q36 -33 77 -29q216 14 393.5 157.5t257.5 350.5q88 224 88 321q0 62 -21 113q-18 10 -26 48q8 4 0 4q-21 10 -44 10q-36 0 -81 -28q-91 -63 -157 -181q-113 -151 -187 -283l4 -4l-16 -39q-14 4 -18 -4l-4 -10q-10 -29 -25 -38q-21 -45 -87 -127 q-4 -11 -67 -66q-55 -7 -73 21.5t-14 83.5q0 11 3 22v20q301 807 407 1274q28 22 62 23q41 0 63 -41q2 -9 0 -20q0 -41 -22 -112q-26 -88 -26 -124q-18 -59 -63 -161l-66 -220q-41 -106 -117 -331l11 19q4 11 4 15q18 21 87 136q52 84 106 123q95 183 292 183q25 0 50 -2 q140 -59 147 -261v-31q0 -291 -195 -567q-113 -213 -448 -351q-88 -36 -182 -37q-203 0 -231 209zM711 945q0 36 30 38q25 0 25 -38h-55z" />
<glyph unicode="c" horiz-adv-x="791" d="M41 356q122 591 435 766q125 -21 158 -129q7 -21 -7.5 -43.5t-39.5 -22.5q-11 0 -28 12.5t-31 12.5q-7 0 -18 -3q-14 -15 -93 -84q-55 -52 -68 -99q-41 -52 -93 -186q-52 -70 -61 -177v-186q36 -126 154 -126q95 0 406 161l4 4q21 21 70 7q0 -70 -56 -113 q-21 -21 -84 -73q-139 -118 -322 -118q-95 0 -184 41q-142 93 -142 356z" />
<glyph unicode="d" horiz-adv-x="1109" d="M-11 98q0 85 25 188q15 110 108 421q18 66 95 192l91 150q70 109 168 109q59 0 158 -123q3 -29 27 -59q28 175 127 511q0 26 66 206q21 42 62 42q67 0 92 -67q2 -28 2 -59q0 -299 -101 -678q-28 -106 -118 -278q-52 -98 -50 -227q0 -132 50 -240q36 -45 81 -43 q21 0 44 15q52 17 106 76l84 99q25 29 104 70q7 -32 7 -58q-7 -25 -52 -132q-109 -113 -130 -132q-85 -70 -167 -70q-36 0 -77 14q-113 66 -175 220l-179 -241q-118 -133 -247 -133q-56 0 -113 23q-88 76 -88 204zM143 113q0 -49 11 -92q4 -17 48 -17q203 94 385 451 q-3 32 22 164q3 18 3 70q-7 29 18 140q-55 18 -95 80l-18 29q-18 32 -44 48q-110 -121 -213 -342l-4 -35q-45 -52 -88 -256q-25 -208 -25 -240z" />
<glyph unicode="e" horiz-adv-x="857" d="M-14 249q112 580 549 906q15 3 84 14q15 3 29 3q39 0 68 -25q39 -32 39 -91q-7 -48 -10 -91q-63 -213 -426 -492q-22 -18 -120 -36q-59 -11 -56 -66q-41 -70 -41 -133v-18q0 -28 30 -111q63 -88 201 -88l16 11q59 0 161 41q102 63 326 176q4 -15 4 -25q0 -22 -18 -41 l-11 -11q-18 -11 -16 -36q-294 -220 -469 -234h-16q-92 0 -178 35q-80 45 -111 118q-25 58 -35 194zM245 601q18 0 41 15l183 168q106 113 140 199q-11 10 -25 21q-196 -120 -339 -403z" />
<glyph unicode="f" horiz-adv-x="633" d="M-217 -329v19q0 54 15 149q7 32 77 283l66 252q4 14 57.5 215.5t56.5 228.5q4 41 22 54l32 170q-14 3 -51 -6.5t-47 -9.5q-56 -4 -70 62l-4 77q25 15 62 17.5t114 8t70 82.5q14 32 157 424q95 263 181 419q70 70 132 123q33 33 74 34h5q52 0 93 -66q15 -59 15 -111 q0 -88 -45 -145q11 -25 30 -48q7 -18 -7 -63q-11 0 -14 -3v-33q-22 -10 -31 -34v-18q-7 -55 -46 -73q-45 -14 -79 29l-7 12q-4 7 -22 18q33 102 81 301l-7 36q-7 -4 -49 -63q4 -66 -39 -70q-165 -360 -272 -651l-7 -45q36 -4 102 15t93 19h11l105 -34v-18q4 -7 4 -11l3 -14 q4 -7 4 -31q-132 -17 -380 -102l-155 -605l-88 -304q-70 -249 -70 -293q-21 -33 -18 -95q36 -22 42 -63q0 -14 -15 -84q-7 -4 -22 -39t-48 -45q-66 16 -111 129z" />
<glyph unicode="g" horiz-adv-x="780" d="M-349 -1180q20 -1 39 -1q163 0 219 114q77 70 123 168q206 426 287 867q-43 -23 -97 -23q-50 0 -113 19q-164 102 -193 231q-25 109 -25 190q0 84 25 150q139 349 301 484q84 51 189 80l118 30q26 4 49 4q102 0 138 -70q25 -55 26 -209v-176q-25 -21 -34 -55 q-17 -41 -42 -113l-13 -30q0 -7 -7 -29q-77 -165 -113 -338q-36 -66 -48 -161q-22 -11 -23.5 -47.5t-8.5 -47.5q-129 -466 -169 -571q-209 -560 -485 -562q-28 0 -57 10zM41 374q0 -59 22 -140q18 -66 123 -157q13 -4 25 -4q66 0 138 99q73 102 102 238q7 80 70 199l50 91 q0 18 -47 41q74 32 74 95v125l-7 7q0 22 -15 22q-10 -4 -177 -66q-122 -45 -127 -77q-80 -52 -181 -271q-50 -111 -50 -202z" />
<glyph unicode="h" horiz-adv-x="1000" d="M-136 98q0 63 36.5 176.5t40.5 169.5l396 1199q-8 49 37 95q-3 41 24.5 75t66.5 34q36 0 70 -43q2 -18 2 -37q0 -99 -50 -194q-91 -179 -116 -304q-15 0 -11 -23q-88 -238 -170 -483l-135 -441l351 448q210 259 419 385q25 14 58 14t75 -14q32 -26 46 -77q15 -63 25 -77 q-21 -56 -32 -147q-14 -118 -21 -151l-95 -399q-49 -227 -63 -402q-113 80 -115 200q0 45 11 115q15 87 20 112q7 77 80 335q51 174 49 290q0 22 -2 43q-4 2 -7 2q-29 0 -106 -72q-154 -139 -326 -370l-297 -399q-32 -26 -73 -85q-48 -69 -70 -91q-55 -25 -84 -14 q-34 61 -34 130z" />
<glyph unicode="i" horiz-adv-x="556" d="M-59 150q0 385 114 759q18 59 99 242q21 25 59 25q36 0 69 -25t33 -59q0 -18 -11 -32q-66 -106 -125 -280l-81 -381q-16 -77 -16 -179q0 -59 6 -125q7 -22 37 -59q15 -4 44.5 24t39.5 31q45 29 121 114t135 110l85 98q-67 -220 -137 -263q-32 -55 -109 -157 q-138 -84 -204 -84h-5q-66 3 -147 109q-7 66 -7 132zM260 1487q0 60 41 74q14 3 87 0q18 0 49 12q28 -10 62 -66q4 -28 -26 -59l-11 -7q-7 -7 -14 -38q-24 -1 -43 -1q-137 0 -145 85z" />
<glyph unicode="j" horiz-adv-x="603" d="M-209 -1078l69 197q99 357 262 1056l102 557q52 278 55 423q-14 35 32 37h4v-3l7 10h9q57 0 106 -48q5 -18 5 -48q0 -11 -3.5 -39t-3.5 -42q0 -46 48 -109q-41 3 -50 3q-14 -3 -11 -21q-59 -392 -180 -854l-176 -657q7 -32 -11 -70q-17 -51 -23 -66q0 -25 -18 -80.5 t-14 -83.5l-63 -131q-32 -68 -80 -108q-74 15 -66 77zM433 1826q4 7 4 77q0 48 39 70q16 9 34 7q36 0 74 -38l14 -14q11 -14 36 -32q-11 -29 -33 -52q-51 -56 -66 -140q-11 22 -62 63q-40 14 -40 59z" />
<glyph unicode="k" horiz-adv-x="934" d="M-21 -41q0 41 25 159l268 977q165 602 227 917q25 18 61 20q63 0 70 -56q0 -48 -54 -199q4 -32 -22 -91t-26 -90.5t-20.5 -93t-20.5 -95.5q0 -18 3 -39q-21 -26 -35 -85q-22 -80 -29 -94q-7 -60 -46.5 -175t-46.5 -178q77 48 202 168q32 -7 45 15q21 51 68 30 q183 41 174 39q28 0 59 -7q28 -28 28 -62q0 -15 -7 -33q-329 -62 -499 -300l-40 -119h15q7 -51 -18 -64l-7 -4q-4 -128 120 -265q62 -48 198 -116q25 -59 154 -122q25 0 32 -3l11 -4h23q4 -44 -59 -77q-417 99 -594 421q-4 25 -18 77q-28 -109 -91 -326q-14 -18 -16 -52 q0 -14 4.5 -45.5t4.5 -49.5q0 -87 -111 -91q-32 50 -32 113z" />
<glyph unicode="l" horiz-adv-x="529" d="M11 168q0 52 3 122q7 14 27 120q45 256 84 433q77 360 190 755q29 106 88 235q70 161 73 168q14 45 70 118q32 42 73 40q36 0 74 -43q2 -9 2 -20q0 -50 -47 -102q-41 -45 -29 -84q-52 -63 -84 -199q-36 -150 -70 -204l-80 -265q11 -25 -11 -46q-3 -15 -77 -276 q-48 -157 -59 -276q-21 -28 -26.5 -99.5t-28.5 -96.5q-27 -163 -25 -242q0 -31 3 -48q-3 -11 -3 -26q0 -35 21 -91q36 4 81 40q59 48 73 55q41 22 111 14q-66 -121 -165 -209q-21 0 -57 -14.5t-50 -14.5q-22 0 -50 18q-74 66 -81 77q-30 52 -30 161z" />
<glyph unicode="m" horiz-adv-x="1927" d="M-66 -18q18 172 111 455q98 308 109 454q-7 92 -41 176q36 32 82 32q34 0 73 -18q45 -66 43 -175q0 -126 -66 -269q0 -48 -23 -152q-18 -80 -18 -131q0 -16 2 -28l351 415q195 227 392 358q105 -41 107 -179q0 -25 -7 -113q-7 -70 -4 -111q-44 -146 -118 -454q4 -4 11 0 q102 95 247 311.5t231 293.5l193 175q45 32 165 104q59 0 80 -63q2 -21 2 -44q0 -120 -48 -267q-91 -256 -100 -301q-70 -369 -70 -519v-27h5q15 0 47 -14q-7 -49 -40 -70q-3 0 -77 -30q-87 77 -89 227q0 45 8 127t8 127q25 129 91 333q81 245 102 329h-7q-11 -7 -25 -33 t-23 -26q-66 -48 -113 -109q-98 -125 -150 -179l-305 -378q-94 -118 -128 -143q-106 -93 -163 -93q-6 0 -13 2q-7 25 0 70q11 62 11 77q0 52 27 238q10 59 61 227q14 41 19 88q0 28 -4.5 75.5t-4.5 63.5q0 33 -3 61q-74 -44 -176 -182q-112 -151 -172 -199 q-73 -106 -230 -256q-140 -129 -196 -238q-3 7 -26.5 -14.5t-26.5 -21.5q-7 4 -20 4q-25 -4 -36 -4q-30 0 -55 18z" />
<glyph unicode="n" horiz-adv-x="1074" d="M32 175q41 158 115 419q66 242 87 425q26 32 63 34q36 0 67.5 -40.5t23.5 -78.5l-157 -648q14 42 73 102q186 260 242 326q147 172 304 272q122 0 122 -129q0 -25 -10 -80.5t-10 -80.5q-25 -121 -46 -238q-29 -150 -31 -238q0 -161 86 -283q-36 -10 -66 -10q-52 0 -91 32 q-70 122 -70 290q0 105 32 268l52 256l-4 7q-139 -105 -315 -370q-186 -279 -297 -381q-52 -22 -93 -22q-21 0 -43 7q-43 33 -43 95q0 31 9 66z" />
<glyph unicode="o" horiz-adv-x="900" d="M-81 165q11 118 63 252l95 240q29 32 77 116q48 74 98 102q49 81 151 104q3 0 7 -2q38 0 114 76q-3 14 18 42q42 4 74 4q55 0 87 -11q151 -105 151 -354q0 -63 -9 -131t-61 -243q-29 -15 -47 -59q-25 -63 -34 -70q-44 -59 -161 -165q-109 -157 -322 -179q-14 -2 -30 -2 l-88 9q-141 68 -183 271zM73 165q0 -45 8 -88q25 -36 109 -45q417 122 555 668q-11 102 -22.5 183.5t-74.5 109.5l-161 -59l37 -43q4 -41 8 -118q0 -66 -42 -105q-17 -11 -35 -15q-2 0 -4 -1q-48 0 -63 121q-32 -14 -84 -77q-62 -73 -87 -91q-102 -220 -111 -256 q-33 -97 -33 -184z" />
<glyph unicode="p" horiz-adv-x="1193" d="M-206 -1253q-3 66 40.5 180.5t43.5 173.5q0 22 -3 45q32 48 59 158q28 125 52 164l87 298q36 128 36 250q0 31 -3 61q35 14 52 66q7 41 17 84q-3 63 24 144q28 98 32 132q0 7 11 127q7 81 52 107q12 8 28 8q34 0 84 -31q15 -7 45 -14q-11 -29 -41 -161q-18 -109 -50 -147 q0 -77 -49 -217q4 -21 -10 -84q422 158 667 521q4 18 32.5 77t28.5 95q0 125 -164 174q-106 18 -208 32q-18 -11 -181 -66q-109 -42 -154 -99q-7 -18 -70 -80q-3 -8 -46 -74q-29 183 -27 217q136 202 444 270q18 0 38 2q238 0 431 -134q109 -154 111 -260q0 -63 -34 -122 q-29 0 -32.5 -25t-10.5 -49t-38 -31q-129 -168 -318 -326q-217 -172 -392 -224q-74 -21 -95 -37q-45 -29 -38 -95q-32 -158 -116 -473q-22 -21 -34 -118q-48 -179 -176 -564q-7 4 -73 4q-38 -4 -52 41z" />
<glyph unicode="q" horiz-adv-x="1032" d="M-245 -550q0 18 14 36q36 43 90 43q10 0 23 -2q70 -21 191 -21q49 2 85 0q73 0 105 -5l31 12l161 476l-195 -62q-42 -8 -77 -8q-136 0 -238 102q-49 85 -47 185q0 91 39 165q301 553 711 648l107 -8q151 -10 161 -241q70 -22 70 -102q-55 -301 -198 -455 q-95 -102 -124 -143q-63 -84 -84 -165q-70 -132 -150 -395q109 -11 200 -24l66 -7q33 -3 25 -59q-112 -55 -336 -54q-84 -186 -161 -615q-4 -15 -15 -76q-9 -48 -59 -50q-12 0 -25 4q-10 59 -12 118q0 102 34 238l59 242q18 32 32 139q-73 -7 -183 -7q-109 0 -257 7 q-43 49 -43 84zM41 186q0 -62 40 -102q48 -18 102 -18q128 0 377 136q18 36 133 204q84 122 84 331q0 29 -7 58q7 45 -63 59q-147 -22 -329 -140q-144 -95 -294 -377q-43 -85 -43 -151z" />
<glyph unicode="r" horiz-adv-x="882" d="M-63 -21q59 213 258 986q-14 32 -16 54q0 41 52 51q29 6 52 6q71 0 77 -54q0 -7 -11.5 -42t-8.5 -89q-21 -3 -25 -10q0 -7 4 -38l-11 -32q0 -11 -4 -20q118 154 246 288.5t282 148.5q15 2 27 2q54 0 102 -24q41 -55 47 -118q0 -32 -29 -200l-52 -7q-11 21 -21 145 q-7 69 -34 93q-179 -56 -330 -228l-136 -146q-77 -88 -102 -169q-25 -3 -48 -96q-18 -67 -32 -84q-32 -59 -99 -246q2 -14 2 -44.5t-2 -76.5q-14 -77 -73 -95q-14 25 -31 14q-17 -18 -32 -18q-30 0 -52 49z" />
<glyph unicode="s" horiz-adv-x="816" d="M-66 91q0 36 48 70q11 -21 66 -102q25 -41 74 -30q179 44 227 66q133 55 175 150q-10 88 -241 185q-74 28 -185 84q-91 62 -87 168q36 52 121 116q110 81 136 108q52 36 162 84q52 29 252 105q66 -14 70 -14q41 -14 43 -52q0 -28 -47 -53q-25 -8 -75 -32t-75 -31 q-11 0 -165 -73q-179 -88 -261 -179q0 -8 -18 -38h4q17 -4 14 -4q-4 -3 -7 -3l41 -11q-4 -18 18 -25q3 0 14 -9q7 4 18 5h27q18 -32 96.5 -59t100.5 -52q161 -80 188 -193q0 -77 -74 -166q-14 0 -25.5 -18t-18.5 -25q-201 -136 -367 -136h-25q-110 7 -194 69q-30 117 -30 95 z" />
<glyph unicode="t" horiz-adv-x="923" d="M66 913q7 41 88 88q55 48 147 66q80 11 161 25q172 336 238 639q25 36 55 36h4q45 0 88 -70q-11 -252 -199 -582q-7 -3 -11 -9q77 -11 154 -18q88 -18 143 -69l4 -70q-14 -2 -34 0q-61 0 -174 9q-23 1 -44 1q-65 0 -115 -17q-227 -439 -227 -738q0 -14 1 -29 q0 -44 13 -82t75 -38q36 0 88 15q41 3 130.5 58t170.5 58q-67 -199 -339 -267q-32 -7 -57 -7q-98 0 -154 63q-66 106 -70 252q0 13 -2 25q0 194 104 455q36 66 84 209q-128 -3 -220 -121h-3q-63 0 -99 118z" />
<glyph unicode="u" horiz-adv-x="1142" d="M-41 150q0 70 23 183q22 132 25 184q56 276 206 536q41 7 88 -27q10 -29 10 -50q0 -29 -28 -81q-36 -66 -41 -81q-59 -171 -140 -477q-7 -92 -7 -158q0 -106 18 -150q95 14 150 52q4 3 122 94q25 52 182 255q119 150 136 270q99 238 192 381q25 16 43 16q29 0 41 -37 q11 -33 11 -63q0 -55 -41 -140q-45 -94 -50 -136q-102 -132 -126 -384q4 -18 11 -99q7 -63 41 -73q52 10 91 37q63 45 77 50q45 45 129 119l43 -31q-21 -106 -84 -157q-48 -42 -113 -106q-94 -56 -161 -56q-98 0 -136 129q-7 11 -14 49q-14 59 -31 57q-3 0 -216 -231 q-136 -122 -347 -150q-104 118 -104 275z" />
<glyph unicode="v" horiz-adv-x="1116" d="M-7 199q0 55 7 127q52 256 91 374q4 80 45 184q59 151 66 176q32 18 61 18q45 0 77 -40q-3 -88 -46 -191q-67 -151 -74 -176q-3 -45 -52 -227q-32 -133 -32 -224q0 -150 54 -202q44 14 93 70q70 80 80 91q172 260 228 374q102 220 102 419q0 55 -7 109q28 22 55 22 q25 0 67 -40.5t57 -47.5q51 -14 100 -14q62 0 123 37q84 45 101 47l68 -15q-22 -55 -58 -77l-143 -102q-36 -25 -175 -30l-34 11q-22 7 -33 9q-7 -56 -26 -178q-199 -545 -480 -787q-45 -38 -111 -38q-31 0 -65 9q-139 88 -139 312z" />
<glyph unicode="w" horiz-adv-x="1777" d="M102 55v36q0 217 41 525l66 535q4 41 54 41q59 0 82 -30q42 -56 40 -120q0 -41 -20 -126q-18 -76 -20 -118q0 -52 -30 -130q-7 -18 -7 -36q0 -38 32 -75q-45 -7 -43 -15v-10q0 -36 -11 -95q-14 -81 -18 -100q-5 -51 -6 -89.5t6 -68.5q60 36 120 140q70 118 106 150 q88 183 374 630q41 29 93 30q18 0 40 -3q55 -25 55 -73q0 -15 -9 -58t-5 -64q-18 -29 -24.5 -98.5t-20.5 -95.5q11 -227 14 -247q25 -143 122 -200q32 -4 73 73q77 92 355 498q209 304 381 478h70q-14 -73 -54 -140q-25 -44 -59 -107q-84 -99 -315 -487q-182 -308 -370 -433 q-45 -14 -85 -14q-66 0 -132 32l-113 163q-3 44 -41 189q-29 119 -25 195q-48 -84 -161 -247q-18 -59 -80.5 -153.5t-82.5 -137.5q-59 -81 -200 -228h-108q-84 0 -84 84z" />
<glyph unicode="x" horiz-adv-x="1131" d="M95 -29q0 56 36.5 93.5t117.5 96.5q11 4 11 25q121 74 320 265q-118 283 -118 406q18 74 77 213h80q45 -10 45 -55q0 -25 -20.5 -102t-13.5 -106q-7 -21 -7 -44q0 -29 59 -210q70 52 381 346l113 -27q2 -15 2 -27q0 -77 -56 -100q-52 -42 -143 -133q-55 -25 -122 -95 l-109 -111q45 -91 145 -191l213 -226q-11 0 -21 -2q-102 0 -172 65q-56 41 -158 134l-114 122q-49 -48 -197 -150q-45 -36 -129 -122q-18 -7 -67 -56.5t-80 -49.5q-37 0 -73 41z" />
<glyph unicode="y" horiz-adv-x="927" d="M-217 -1140q190 182 375 539q161 311 234 583q-4 22 -11 47q-14 41 -52 66q-146 95 -231 472q-7 126 -53 448q0 -11 -4 70q0 25 18 27h5q38 0 74 -51q39 -53 41 -96q25 -220 73 -444q63 -294 235 -374q102 220 301 843q77 41 87 45q22 0 41 -24l42 -35q-18 -99 -97 -262 q-70 -139 -234.5 -603t-186.5 -503q-154 -290 -308 -514l-168 -164q-52 -49 -69 -54t-112 -16z" />
<glyph unicode="z" horiz-adv-x="988" d="M-36 18q-7 55 72 114q216 99 514 271q80 48 275 209l29 52q-99 63 -242 63q-88 0 -326 -49q-9 -1 -18 -1q-48 0 -121 50q-11 21 -11 39q0 32 47 45q7 3 26 7q15 -4 29 -4q22 0 68.5 13t71.5 9q146 14 231 14q256 0 377 -113q18 -21 18 -55q0 -32 -21 -81l-18 -14l-4 -7 q-11 -14 -41 -41q-4 -18 -21 -29l-38 -16q-4 -7 -7 -21q-36 -15 -111 -75.5t-124 -75.5q-73 -52 -234 -136q-29 -28 -117 -73q-51 -11 -114 -61h7q11 0 25 -11q7 0 18 -2q88 0 279 34q95 17 184.5 17t172.5 -17q-29 -28 -29 -52q-378 -73 -693 -94l-88 41q-44 21 -66 50z " />
<glyph unicode="{" horiz-adv-x="3891" d="M0 942q-7 -56 36 -70l73 -16q41 -9 111 -34q95 -33 231 -104l113 -54q14 -7 48 -34l-14 -11q-59 -48 -217 -146q-7 -15 -7 -29q0 -56 102 -63q133 -7 392 -25q41 -7 100 -7q-25 -52 -55 -100q-4 -11 -30 -40.5t-26 -43.5q0 -11 11 -22q-48 7 -52.5 -17t-4.5 -45 q0 -4 -38 -36l-91 -111q-4 -15 -4 -29q0 -41 52 -59q49 -14 77 4q63 3 281 66q77 21 136 43l33 16q-70 -125 -187 -381l-28 -88q0 -7 3 -23l8 -11l28 -36q84 -3 154 47q113 84 119 84t108 70l31 18q3 0 3 5q26 7 36 25q18 7 52 21q14 11 49 26.5t60 29.5l49 7q18 -29 14 -32 q18 -84 66 -261q22 -45 84 -129q25 -22 52 -18q52 7 47 7q11 11 34 52q14 11 18 25q55 66 157 216q0 -3 4 0l18 -21l77 -107q55 -70 161 -219q25 -14 55 -16q32 0 31 0h21q25 22 47 48q0 -3 -7 -7l3 40l13 195q14 7 21 18q59 18 95 3q70 -18 106.5 -37.5t138.5 -57.5 q11 4 24.5 -1.5t20.5 -5.5q18 0 66 49l4 68q-4 35 -27 139l-29 125q-3 22 -7 67l-3 14q118 14 209 -18l54 -23q32 -32 62 -32q4 0 38 18h11l39 41q-7 -7 4 3v29q-8 25 -18 77q-36 125 -99 385l-10 48q84 -11 189 -77l95 -29q49 -14 63 -48h7h11q48 -3 70 36q10 73 0 89 q-11 22 -15 26q-109 234 -286 451l114 69l256 176q4 0 31 32q3 -7 0 4q7 7 14 23l4 25q0 4 3 18v34q-3 3 2 3t-39 51l-43 19q-88 41 -140 58q-113 41 -270 82l3 14q18 66 36 117q36 102 38 91q41 66 39 136q4 -4 4 41q0 32 -67 70q-25 3 -69 7q-49 0 -105 -11.5t-141 -33.5 q-28 -7 -62 -18q-15 -3 -32 -48q25 32 80 34q63 -4 70 0l161 11l66 -7q22 -4 22 -27q0 -36 -52 -169q-66 -161 -74 -182l-14 -48q-3 -11 20 -47l25 -7q143 -25 322 -100l118 -50q4 0 11 -4v-16l4 3l17 -50q-10 7 -10 4q-15 7 -15 25l4 4l-27 -22q-45 -36 -150 -104 q41 22 48 27q0 -4 -304 -199q7 -59 34.5 -87.5t31.5 -39.5q95 -129 140.5 -204t115.5 -222q-48 22 -127 77q-133 77 -251 92h-28l-18 -4l-45 -77q0 4 7 14v-3q29 -129 100 -385q0 -22 25 -127l-91 39q-136 29 -216 14q-8 8 -81 -25l-7 -7q0 -3 -14 -55l7 -32q3 -33 18 -102 l43 -203v-34q-8 4 -25 7l-40 17q7 0 -27 10q4 -3 -25 11q-45 36 -105 39l-63 20h-4q-3 4 -23 4l-7 -4l-32 -7q-45 -11 -63 -27q-29 -21 -55 -77q-8 -73 -11 -197h-7l-11 15q4 -4 -4 7l4 -4q-4 7 -18 29q-29 36 -118 161l-59 80l-57 74l-67 11l-7 -4l-7 -4q-91 -95 -217 -300 l8 -11q-8 0 -44.5 53.5t-29.5 71.5q-14 74 -59 231q-3 18 -10.5 42t-87.5 49q-18 0 -92 -21q-18 -11 -62 -25q-18 -14 -75.5 -44t-130.5 -81l-29 -22q-3 0 -11 -7l-12 -5q-22 3 -47 -26l-10 -10q10 7 21 7l-45 -18q-59 -48 -105 -77q32 95 102 235l70 136l34 66l3 11 q4 7 7 32v3l-77 52q11 -7 -7 4l-48 -15q-186 -73 -276 -91q-52 -14 -138 -30q-3 0 -30 -4l45 56q11 0 59 95q0 7 18 17q48 63 123 199l16 36h2q2 4 6 27v3q-33 36 -67 70q4 0 11 -11l-25 4q-132 14 -304 18q-52 0 -147 7l-22 4q45 25 179 132v-3q0 14 4 87l-4 4l-14 11l-7 7 q-25 18 -48 28l-70 38l-140 66q-139 66 -290 102q18 7 111 38q168 55 304 91l63 18l29 70l7 14q0 -3 -4 -3l-7 17q-109 176 -259 324q-49 33 -126 99l147 21q95 4 290 22q45 84 43 166q0 59 -31.5 152.5t-34.5 136.5q-18 69 -54 195q-11 28 -27 77q63 -49 188 -126l99 -73 q14 -11 55 -32l11 -7h3h-3l-4 3l-52 32l-94 67q-70 51 -203 139v7h-3l14 -7l261 -172q15 -10 49 -34l28 -18h7l-3 -7h7q14 4 48 22l4 14q14 45 32 118q36 102 52 195q0 -3 -3 -9h-4q4 8 11 27q3 4 3 15h4h3l77 186q15 32 38 93q21 102 36 102q7 0 38.5 -70t79.5 -220 q18 -99 64 -290q15 -59 52 -176l25 -55q22 -7 38 -7q21 0 26.5 18.5t12.5 22.5l228 399l111 217q7 7 12.5 16t12.5 16q10 7 18 -7v3q-4 15 -11 11l3 7q-25 25 -35 -18q-151 -290 -335 -585q-25 -66 -47 -66q-21 0 -41 70q-18 59 -32 112q-22 106 -77 312q-11 25 -34 91 l-25 97q-14 28 -32 87q-18 33 -38 29q11 11 -3 18q-15 7 -29 0l-7 -4l7 -3l-7 3l-7 -3q0 -11 -13 -36l-88 -261q22 59 59 166l25 99q0 -11 4 -4q4 4 13 36l-9 -7l5 7l-5 -7q-4 -7 -4 -15q-29 -102 -131 -377q-14 0 -23 -29q-11 -41 -11 -45q-25 -98 -77 -252q0 -7 -3 -27 l-22 16l11 -7l-21 14q-92 59 -262 186q-66 45 -95 45q-32 0 -39 -41l43 -154l91 -333q-7 22 -57 253q32 -113 77 -326q-7 18 -20 62q7 -77 24 -198q-85 0 -258 -11q-63 -4 -124 -11q-77 -7 -132 -37q3 -70 70 -113q84 -59 94 -77q56 -63 162 -195q21 -32 69 -99q4 -3 4 -10 h-7l-63 -18q-202 -52 -242 -66q-136 -45 -234 -111zM1053 2544q44 87 94 247l22 84q-22 -86 -116 -331zM1792 2504q7 7 37 66q8 22 56 99q36 63 36 84q28 -55 66 -179l25 -100q-7 0 -11 3l4 -21q11 -77 55 -227q7 -8 11 -42.5t59 -42.5q-11 11 -21 18q-42 41 -52 97 q-15 81 -29 106q7 14 -5 48q-15 48 -15 54l4 3v-3l7 -22v-3q36 10 38 17q0 8 -41 15v3q-15 88 -61 240q-4 7 -27 47l-11 -4q-3 7 -7 11q0 -4 7 -11h-3h3v-3q-3 -11 -11 -25q-86 -158 -114 -228zM1921 2774l7 -10q21 10 0 10h-7zM1998 2490q-18 -7 3 -13zM2016 2470h3 q11 0 13 -7q3 -7 -9 -11zM2101 2236q0 -7 9 -28.5t9 -34.5l-10 -11l10 11q-3 -7 -7 -11q11 0 7 16l36 51q-14 -22 -36 -51q-10 22 -18 58zM2112 2162zM2130 2141l4 3h-4v-3zM2134 2144l7 -3l55 80l117 161q105 147 206 181q-110 -28 -326 -349q-11 -7 -59 -70zM2155 2229 l63 77l-15 -15l15 22zM2218 2306q11 14 32 41zM2218 2313l37 52l-23 -25zM2250 2347l9 10q-5 -7 -9 -10zM2379 2504l45 32q-31 -17 -45 -32zM2424 2536l39 33q25 19 52 23q-32 -4 -91 -56zM2519 2563h7h-7zM2519 2592h5h12h4h-14h-7zM2522 2567l7 -4l22 -16q-4 11 -7 16 q7 7 3 25h-3q0 4 -4 4h-4q-3 -7 -14 -25zM2533 2563h3h-3zM2544 2588h3q4 -3 7 -3q-3 3 -10 3zM2551 2547l3 -3q49 -25 42 -120q3 44 -4 69.5t-38 53.5h-3zM2588 2361q8 29 8 63q-4 -22 -8 -63zM2624 2093l70 23q66 18 70 28l-56 -17q165 59 272 62h4q7 0 55 11 q-195 -5 -415 -107zM3002 1962l3 3q4 15 52 92l-3 -4q-20 -29 -52 -91zM3039 2200h18h22q-7 3 -18 3q-7 0 -22 -3zM3057 2057q4 0 38 48q21 14 14 57q-7 41 -19 41q-4 0 -4 -3h-7q14 -4 20.5 -21t6.5 -31q0 -18 -20 -47q-29 -41 -29 -44z" />
<glyph unicode="|" horiz-adv-x="606" d="M209 -272q-7 444 88 1947q29 455 56 665q7 69 57 200q25 66 77 73q45 8 97 -50q25 -91 -27 -206q-33 -73 -11 -139q-52 -113 -59 -330q-7 -252 -29 -338q-14 -136 -36 -435q11 -21 11 -41q0 -18 -11 -36q0 -32 -30 -451q-18 -268 -4 -455q-17 -32 -17 -96q0 -25 5 -72.5 t5 -72.5q0 -52 -10 -81q0 -95 10 -232q4 -88 29 -235q-4 -66 52 -179q14 -66 14 -109q0 -88 -59 -77q-165 150 -208 546q4 9 0 204z" />
<glyph unicode="}" horiz-adv-x="1865" d="M172 965q14 95 73 190q36 35 84 73q119 91 265 95q25 3 70 0q45 -11 124 -29q84 -28 136 -132l3 3q15 45 41 70q8 11 18 18q81 73 203 73q118 0 222 -43q59 -25 89 -66q154 -136 154 -370q0 -63 -7 -106q-36 -224 -374 -349q-88 -32 -188 -84q-7 -4 -63 -45l-32 -21v-40 q-14 -10 -29 -12q-7 0 -16 5l-11 -16q-3 -7 -14 -25l-14 -11h3l4 4v-4h-4q-7 -11 -21 -11q-18 0 -27 15l-4 -29q-17 84 -10 95l-11 7q-7 7 -11 14q-21 18 -66 52l-7 4q-11 4 -18 11q-41 18 -184 91q-92 48 -217 172q-59 59 -102 157q-7 29 -22 70q-44 122 -37 174zM353 881 q10 -113 60 -178l122 -119h7q56 -29 158 -97q98 -32 91 -32q41 -7 122 -56q14 -14 14 -25q0 -14 -21 -29h-4q11 -14 32 -37q42 32 133 88q98 41 216 118l74 50q11 11 43 48q132 147 122 322q0 22 -22 81q-36 70 -81 104h-3q-81 62 -177 61q-56 0 -127 -22q-49 -32 -101 -73 q-41 -81 -28 -124q7 -7 7 -16q0 -18 -38 -25l-3 -4q-15 -3 -25 0q-18 15 -18 26l-4 7q-7 14 -7 27v7q-29 25 -20 62q-7 15 -61 61l-37 27q-36 7 -77 22q-125 0 -154 -11q-84 -22 -143 -88q-32 -59 -47 -129q4 -14 -3 -46zM868 1133l4 -4q0 4 -4 4zM1045 1214q25 10 144 39 q-88 5 -144 -39zM1473 580q113 95 115 263v14q-11 -175 -111 -266z" />
<glyph unicode="~" horiz-adv-x="1054" d="M91 2683q0 176 154 378q7 0 24 9t17 25q92 70 169 61q98 -29 171 -186q26 -25 46.5 -100.5t54.5 -95.5v-28q0 -7 -9 -11l9 -14q3 -29 18 -23l7 -40l7 7v-14q32 14 39 14q88 63 185 242q55 98 91 98t52 -112l-88 -154q-45 -36 -111 -121t-120 -114q-95 7 -150 99 q-22 35 -77 179q-18 48 -59 137.5t-104 98.5q-91 -32 -154 -159q-18 -36 -73 -215q-11 -41 -54 -52q-45 -11 -45 91z" />
<glyph unicode="&#xa2;" horiz-adv-x="2425" d="M150 759q0 32 88 140q59 48 188 120q22 21 106 62q18 22 91 70q-29 11 -88 55q-21 11 -98 77.5t-203 182.5q-21 25 -21 56q0 7 32 109q84 91 92 104q55 55 114 80q48 59 120 59q286 0 517 -335l7 8q8 3 17 10q-15 77 -17 158q0 363 405 694q150 126 337 176 q55 -15 44 -74v-21q-18 -129 -59 -220q-45 -172 -129 -287q-7 -32 -25 -48q-36 -77 -118 -227q337 318 782 447q15 -3 61 4q81 10 111 -47q15 -59 15 -107q0 -81 -42 -140q-10 -52 -127 -190q-14 -21 -48 -59q-52 -35 -143 -123q-77 -52 -245 -147q216 -14 279 -111 q118 -106 95 -256q-52 -195 -374 -261q-151 -7 -267 62q14 -98 18 -304l-22 -281q-41 -168 -173 -206q-36 -14 -77 -14q-88 0 -161 50q-183 125 -264 408q-7 56 -7 117q0 44 4 91h-4q-182 -66 -286 -65q-140 0 -367 88q-45 22 -147 43q-11 27 -11 52zM268 766 q103 -45 312 -102q217 7 336 70q22 18 60 57q-133 81 -133 272q-45 32 -88 32q-44 0 -94 -32q-15 -18 -56 -33t-48 -26q-18 -28 -50 -28l-144 -115l-59 -43q-39 -38 -36 -52zM308 1529q18 -45 73 -88l102 -88q22 -7 31 -27l3 -10q126 -84 308 -120q25 -18 40 -20 q48 122 161 290q-36 -14 -50 27q-36 102 -142.5 188t-210.5 86q-36 0 -190 -67q-96 -66 -125 -171zM952 1049q0 -150 115 -174q48 -35 118 -35q36 0 277 76q11 -3 15 15q21 52 73 48q7 -7 14 -7q15 0 31 11l11 10q3 4 7 4q48 41 48 102q0 22 -9 48l-28 74q-11 7 -43 -4h-17 q-10 -3 -21 -3q-32 3 -81 69q29 36 88 47q-36 48 -88 66q-7 -77 0 -116q-87 18 -87 88q0 7 3 17v38q-3 11 -6.5 16.5t-51 14t-71.5 30.5l-3 -4q-29 -18 -47 -18q-10 0 -19 4l-8 7q-7 -3 -32 -28l-7 -15q-14 -21 -41 -34l-91 -168q-49 -91 -49 -179zM1038 524 q0 -205 158 -349q28 -44 120 -98q66 -18 129 0q51 14 87 143q0 29 25 91q22 280 -25 444l-21 77q-220 -87 -353 -87q-36 0 -70 3q-50 -206 -50 -224zM1180 1700q3 -7 19 -25q4 -3 4 -34.5t18 -24.5q48 11 73 11q18 0 31.5 -3.5t70.5 -50.5q25 85 115 235q14 41 136 252 q113 256 138 414h-18q-22 0 -36 -22q-102 -25 -213 -125q-14 4 -22.5 -8.5t-17 -18t-8.5 -9.5l-8 -3l-7 -8q-14 -14 -28 -21q0 -7 -8 -20q-80 -73 -111 -116v-7q-3 -4 -3 -7l29 21q-119 -109 -138 -224q-6 -19 -16 -206zM1493 1484q118 -59 150 -138q88 0 120 22q0 3 4 3 h-18q147 45 259 122q33 21 221 172q55 62 153 193q4 18 26.5 70t22.5 84q0 21 -7 41q-4 7 -84 22l-4 -4q-118 -21 -458 -197q-154 -109 -235 -209l-121 -151q-18 -3 -22 -14zM1638 899q88 -92 227 -92q106 0 195 43q106 52 129 143q11 45 -23 122q-48 109 -201 127 q-77 7 -254 -7v-3q4 -18 19 -60.5t15 -72.5q-2 -113 -107 -200z" />
<glyph unicode="&#xa3;" horiz-adv-x="1832" d="M88 113q0 28 10.5 89t51.5 194q11 44 84 157q33 48 77 48q29 0 74 -55q0 -11 11 -29l17 92q85 406 144 644q-25 -4 -54 -4q-21 0 -66 8.5t-66 8.5q-42 0 -81 -13q-73 11 -132 70q28 73 87 77q102 7 115 16q55 25 252 46q0 8 49 199l42 179q49 202 92 353q18 77 30 98 q41 99 201 99q195 0 300 -102q59 -56 4 -115q-25 -25 -73 -4q-4 0 -117 67q-84 52 -114 52q-52 0 -84 -110q-49 -168 -187 -762q22 3 55 -5t47 -8q119 0 210 -21l36 -40q0 -32 -25 -62q-74 3 -162 0q-91 -4 -195 -18l-73 -356l-54 -290q-52 -256 -52 -279q0 -52 25 -110 q8 -7 38 -18l213 -87q122 -49 224 -49q209 0 451 158q41 25 102 25q25 0 36 -14q10 -15 -15 -56q-161 -245 -524 -245q-224 0 -480 91q-80 25 -122 41q-10 0 -35 12.5t-81 12.5q-59 0 -80 -28q-49 -59 -115 -59q-21 0 -50 10q-41 33 -41 92zM224 183q-11 -33 14 -33 q32 0 129 81l4 45q0 35 3 57q4 7 2 20.5t5 45.5q-14 4 -28 27l-8 11q-3 11 -16 14q-28 -32 -69 -111v-11q-4 -3 -29 -84v-14q0 -7 -2 -20.5t-5 -27.5z" />
<glyph unicode="&#xa5;" horiz-adv-x="2711" d="M106 730q32 63 89 190l142 186q35 41 139 133q11 18 23 23l8 4l3 3l50 39q15 11 31 11q25 0 46 -28q-3 -29 -25 -42l-32 -21q-22 -18 -73 -56q-18 -21 -67 -66l-28 -27q-24 -23 -24 -41q-35 -28 -77 -93l-66 -98q-11 -22 -43 -106q-3 -11 -23 -59v-66q52 3 107 48 l124 120q70 73 105 137.5t138 170.5q25 3 40 -22l3 -3h-3l7 -38q-22 -10 -43 -57q-25 -63 -34 -70q-48 -113 -47 -206q0 -73 29 -132q11 -4 29 7q87 113 257 544q15 11 25 11q22 0 36 -38l13 -10q-4 -59 -20 -183l23 -129q22 -80 74 -95q52 29 84 113q11 88 11 181 q-8 32 0 95q-11 48 -31 143q22 21 41 21h15l143 -238q21 -21 55 -73l36 -38q29 -18 56 -18q18 0 32 11q25 63 27 125q0 85 -45 162l-32 77q-25 25 -59 102q3 3 15.5 14.5t28.5 11.5q11 0 26 -10q94 -129 116 -147q77 -74 166 -70q74 -7 99 22q7 25 0 41q-22 44 -99 102 q-87 66 -111 95l-109 118q-3 11 -3 21q0 29 28 38l210 -66q69 -22 116 -20q136 14 199 89q14 18 0 47q-25 21 -52 30q-36 4 -43 11q-102 0 -88 4q-32 0 -101 7t-101 7q11 0 21 4h15q-36 7 -54 7l-20 3h4h-4q-44 -7 -50 18l-14 52l234 102q99 49 190 174q25 36 34 54 q-7 3 -33 -7.5t-33 -10.5q-63 -11 -165 -63q-25 -11 -89 -47q-8 -14 -33 -23q-35 -45 -87 -43q-22 49 -15 74q45 28 176 146q45 49 91 144q-98 0 -263 -147q-7 -7 -97 -77q-21 -18 -77 -70q-25 -25 -61 -55v-4q4 0 15 -4q14 -14 50 -84q0 -98 -77 -202q-29 -36 -88 -84h-3 l7 3l-4 8l-3 -11v-4q-4 -3 -4 -7q-136 -109 -270 -186q-32 -14 -108 -52q-164 -29 -196 32q-4 4 -20 41q11 106 100 197q22 25 165 151q25 18 95 73q18 14 91 52q36 41 143 77q7 7 7 21l140 129l161 140q95 84 172 120q18 0 61 15t64 15q18 0 38 -3q44 -36 43 -129 q-7 -18 -40 -63l-12 -14q80 32 143 32q52 0 89 -21q18 -22 18 -43q0 7 -30 -81q-84 -140 -204 -209q-14 -15 -111 -63q172 -11 195 -14q129 -22 158 -88q41 -91 -4 -136q-140 -113 -269 -115q-77 0 -175 34l14 -14q15 -11 45 -45q25 -14 113 -91q55 -91 55 -122 q0 -14 -3 -28q-11 -25 -52 -67q-14 -17 -43 -10h-7q-15 -4 -41 -4q-45 0 -126 11q0 7 -14 7q25 -55 66 -168q11 -88 63 -280q3 -10 43 -252v4q32 118 104 245q10 21 91 111q41 48 168 175q109 106 158 183q48 55 44 73q15 18 33 20q14 0 30 -20q11 -87 39 -252h4v-32h4 q10 -25 7 -34q18 -136 0 -271q-29 -198 -99 -275q-10 -29 -43 -74l-261 -209q-7 -14 -29 -29l-7 -3l-3 -4q-4 -14 -4 -11q-48 -35 -97 -220q-14 -41 -43 -173q-21 -95 -48 -179q-7 -63 -102 -308q-3 -25 -27 -84q0 -18 -43 -56q-44 14 -44 45q0 18 15 47.5t15 40.5 q168 392 168 776q0 136 -34 195q-28 99 -80 396q-22 106 -70 381q-4 11 -65 169q4 -25 4 -52q0 -45 -13 -92q8 -14 -10 -32l-11 -11q-7 -7 -11 -7l-7 -9q-14 -14 -29 -21q-146 -7 -202 91q-3 11 -25 31q-14 35 -59 102q0 -36 4 -59q0 -26 -8 -77q-3 -25 0 -77 q-32 -102 -73 -140q-11 -22 -63 -54q-14 -7 -28 -7q-29 0 -66 25l-24 18q-36 41 -80 224q-41 -81 -113 -245q-11 -8 -25 -33l-13 -19l-10 -22q-49 -52 -110 -52q-14 0 -34 4q-32 21 -68 97q-3 32 0 98q-7 29 0 84l4 7l-23 -21q-7 -7 -25 -34q-15 -7 -18 -11l-4 -4l-3 -7 q-15 -21 -34 -28l-110 -97q-66 -48 -139 -32q-56 48 -41 191zM727 1360h18q121 0 343 154q199 140 231 267v41q-7 0 -14 4h-14q-8 -4 -81 -15q-48 -35 -91 -55q-36 -29 -118 -73l-92 -77l-10 -11q-74 -66 -108 -102q-54 -66 -64 -133zM1858 77q14 -41 41 -125l143 143 q8 7 174 150t181 367q25 106 -25 337q-4 25 -22 93l-3 3q3 -28 -38 -100q-41 -45 -259 -263q-33 -48 -104 -140q-4 -18 -31 -67t-27 -76q-28 -80 -30 -157v-165z" />
<glyph unicode="&#xa8;" horiz-adv-x="787" d="M70 2207q0 102 84 102q29 -7 56.5 -16t34.5 -43v-50q-11 -106 -113 -118q-55 32 -55 55q-7 41 -7 70zM571 2200q0 77 66 77q22 -4 44 -11t26 -34v-39q-7 -81 -88 -88q-41 25 -39 39q-9 34 -9 56z" />
<glyph unicode="&#xa9;" horiz-adv-x="2509" d="M-283 1462l20 25q-25 264 141 536l81 27q11 -67 -28.5 -164.5t-28.5 -140.5q-49 -168 -49 -367q0 -252 81 -567q41 -52 94 -191.5t108 -197.5q77 -59 109 -146q403 -382 888 -382q525 0 1070 498q333 304 333 832q0 434 -263 770q-44 56 -261 294q-514 308 -1008 308 q-528 0 -773 -403q-186 -231 -190 -532q7 -91 -5 -276q14 -14 16 -35q0 -18 -16 -49l19 -18q11 -109 58 -392q-59 59 -99 144q-91 300 -91 574q0 385 196 668t556 410q213 36 385 37q227 0 385 -52q128 -17 443 -143q56 -21 278 -164q514 -426 514 -1141q0 -227 -43 -377 q-92 -305 -398 -587q-539 -494 -1154 -494q-228 0 -403 76q-59 0 -195 85q-29 14 -77 28q0 29 -32 41h-11q-7 4 -14 4q-183 118 -342 353q-22 18 -48 69t-44 65q-73 102 -114 265l-68 277q-27 258 -20 433zM539 1001q175 846 626 1100q179 -28 228 -184q10 -32 -11.5 -63.5 t-58.5 -31.5q-18 0 -42 20t-42 20q-11 0 -25 -8l-133 -119q-77 -70 -98 -144q-59 -73 -133 -268q-73 -102 -87 -253v-272q44 -157 146 -172q29 -3 74 -3q136 0 300 84l281 147l9 3q22 18 54 18q18 0 45 -7q0 -95 -81 -161l-121 -106q-203 -168 -462 -168q-136 0 -263 57 q-206 133 -206 511z" />
<glyph unicode="&#xab;" horiz-adv-x="5656" d="M91 -52q0 11 11 23q52 22 97 11q14 0 21 -3l455 -8q182 8 528 15q41 0 304 39l-122 -29q147 8 249 4h140q77 0 125 -4q7 4 70 0q150 -3 179 -7q91 -10 172 -44q48 -42 59 -85q7 -3 18 -7q11 -21 12 -36q0 -10 -5 -23q-29 -25 -91 -54q-7 -7 -124 -48q-32 -11 -154 -29 q-7 0 -41 -8q-21 -4 -36 0q-91 -8 -157 5q-11 -7 -20 -9q-11 0 -18 9q-88 0 -199 14l-53 7q-22 4 -276 29v4l-91 10q-59 8 -228 34v4l-146 25v4q-15 0 -22 3q-21 4 -100 11v9q-106 21 -322 61q-29 0 -92 30q-35 4 -112 18q-31 7 -31 25zM634 -113q14 4 45.5 -4t43 -8 t18.5 -7q41 0 70 -11q14 -4 21 -4l389 -66q36 -7 216 -21q59 -4 166.5 -19t156.5 -15h51q8 -8 11 -4h11q11 4 14 0q63 7 220 16q70 4 52 4q74 18 197 80q-14 45 -73 63q-36 7 -57 14q-283 29 -650 22l3 -4h-112q-70 -4 -210 -14q-11 0 -14 3zM2533 -179q-14 132 154 172 q21 7 73 21q168 7 206 -59q48 -91 -14 -172q-11 -14 -41 -32q-4 -7 -29 -23q-81 -29 -122 -29q-36 -18 -95 0q-107 34 -132 122zM2599 -172l18 -23q21 -22 38 -25l7 7q3 7 10 14q33 -3 42 -21l3 -11q109 0 142 36q7 0 41 37q0 8 7 15l4 3q0 59 -4 63l-66 25l3 4h-10l7 -4 q-129 -3 -224 -73q-29 -22 -18 -47zM3086 -109q0 18 20 39q21 -7 39 -25q4 14 14 18l8 11q102 45 166 45q21 3 54 10q202 18 254 18h605q52 0 378 -11q77 -3 277 -14q36 4 73 -7q52 7 147 -4q109 -14 151 -16q102 4 139 -7q18 -14 18 -39q0 -11 -4 -27q-14 -7 -109 -18 q-150 -18 -132 -18q-14 -4 -41 -7q-4 0 -246 -29l-340 -44q-112 -22 -411 -67q-110 -14 -355 -44q-25 0 -93 8t-105 4l-4 4q-18 0 -53 5t-53 5q-118 29 -275 85q-11 3 -36 21q-52 14 -70 59v11l-4 3l-3 8q-9 12 -9 23zM3215 -125l3 -4q0 -7 4 -14v-11q18 -7 55 -25l190 -59 q49 -4 151 -18q154 -21 415 11l21 7q15 -4 38 0q32 7 39 7q41 0 115 14q41 4 108 15.5t207 40.5h21q36 0 52 7q102 14 212 25l150 27q14 0 30 4q-69 7 -241 17l-598 11q-11 -3 -18 0q-118 4 -356 4q-36 0 -115 -4q-7 4 -43 4h-18q-66 0 -367 -40q-19 -9 -55 -19z" />
<glyph unicode="&#xae;" horiz-adv-x="1904" d="M4 1357q17 18 44 18q18 0 40 -7l7 7q25 55 70 59q121 62 370 95q15 132 59 206q4 28 22 80q48 81 48 186q0 154 -88 319q0 102 50 129q36 7 63 -52q-11 -29 -11 -57q0 -18 52 -171q22 -44 22 -94v-8q7 -3 7 -14q4 -48 -25 -184q-7 -32 -7 -77q-15 0 -15.5 -18t-4.5 -29 q-73 -113 -73 -188v-7q7 0 7 -14q55 0 163 11q14 66 10 150q-7 118 -10 154q18 172 25 199q11 98 55 186q56 220 22 338q-15 56 -95 158q-22 14 -23 42q0 29 34 38q66 -18 109 -98q28 -59 37 -67q45 -157 43 -268q0 -129 -53 -217q-56 -121 -56 -297q0 -52 4 -154v-154 q32 0 132 -21q70 -14 186 -91l4 -15v4l11 -7q7 -4 18 -16v-85q-11 0 -22 4q11 -22 11 -54v-10l16 14q21 21 25 54q29 10 43 26l12 11q60 59 162 59q91 0 146 -70q8 -32 40 -94l45 -217q0 -4 7 -63q3 -32 0 -62q7 -49 -4 -126q-14 -95 -14 -123q-7 -154 -136 -235 q-63 -28 -129 -30q-88 0 -143 52q-8 14 -54 66q-36 41 -38 77q0 14 4 29l-25 -81q3 -25 -19 -78t-15 -87q-29 -25 -47 -80q-21 -66 -37 -84q3 -52 -47 -92l-19 -14q-11 -14 -26 -16q-41 0 -41 41q29 106 126 305q7 51 37 150l-16 18q25 14 30 52q0 7 8 21q55 165 43 399 q-22 67 -36 203q-11 -22 -49 -34q-7 7 -17 9q-15 0 -33 -17q-35 8 -102.5 -6.5t-95.5 -10.5q-203 -56 -487 -43q-81 17 -242 50q-3 -7 0 -36q7 -32 7 -41q25 -88 22 -109q18 -52 30.5 -169.5t35.5 -172.5q29 -357 224 -571q14 -18 36 -34q7 25 37 44q7 0 186 11 q113 7 165 56q14 3 30 3q42 0 40 -48q0 -18 -15 -36l-7 -14q-62 -63 -168 -67q-154 -3 -184 -14q-41 -7 -63 14l-7 -10q-14 -25 -43 -34q-66 21 -111 84q0 3 -65 122q-105 198 -132 354l-18 107l-107 613q-7 7 -7 66zM195 1330h7q29 0 77 -25q169 -32 288 -14q169 25 401 55 q22 14 36 11h11q11 0 20 14q62 7 109 -41q14 14 32 23q-41 18 -84 50q-70 49 -127 45q-81 -3 -294 -25q-3 4 -7 4q14 -25 14 -45q0 -18 -12.5 -30.5t-24.5 -12.5q-22 0 -43 29l-22 43l-5 5q-52 3 -138 -27q-18 4 -34 4q-18 0 -53 -12.5t-56 -12.5q-14 -22 -73 -29 q-18 -2 -22 -9zM297 2878q7 88 63 403q18 106 -45 161l22 56q48 0 103 -77q11 -52 11 -104q0 -63 -27.5 -192.5t-24.5 -199.5q-25 -224 34 -641q18 -41 27 -129t20 -123q-15 -33 -40 -34l-34 10q-32 45 -39 138t-27 124q-54 429 -43 608zM1232 648l3 9q59 0 101 -61t64 -64 q91 -15 164 32q49 48 67 136q7 52 27 150q-11 15 -4 77q-4 15 -4 95q0 56 -30 97l4 7q-33 147 -95 193q-45 -3 -129 -28q-4 -33 -43 -52q-4 -7 0 -18q-11 -15 -38 -45q52 25 92 27q25 0 44 -11q67 4 88 -70q7 -10 30 -62q15 -33 8 -67q10 -32 10 -73q0 -122 -87 -220 q-22 -7 -52 -7q-67 0 -176 28l-3 6q-7 -4 -31 -6l4 -21q-4 -20 -14 -52zM1276 931l4 -15v-87l131 -34q17 0 34 9q44 14 42 148l-7 9q0 15 -5 44.5t-5 43.5q-11 29 -40 36q-25 3 -45 -18q-51 0 -51 -25q0 -11 6 -31.5t6 -31.5q0 -36 -30 -66q-25 7 -40 18z" />
<glyph unicode="&#xb0;" horiz-adv-x="535" d="M11 1987q7 150 59 245q32 129 193 245q36 18 104 42q29 7 50 0l20 3q91 -52 116 -165q4 -21 4 -41q-4 -3 -4 -7q4 -3 7 -14q-3 -7 -7 -11q-3 -113 -46 -183q-8 -7 -13 -19l-7 -18q-88 -109 -120 -143q-91 -88 -188 -99q-18 0 -58 9t-77 58.5t-33 97.5zM106 2016 q18 -70 80 -70q14 0 36.5 4.5t52 9.5t57.5 34t60 73q125 151 98 276q-7 29 -21 54q0 7 -12.5 13t-12.5 14l-27 10q-14 4 -25 4q-4 -4 -11 -4l4 -3l-11 -15q-7 11 -14 11l-20 -7q-25 -21 -84 -59q-150 -188 -150 -345z" />
<glyph unicode="&#xb4;" horiz-adv-x="619" d="M102 2127l66 87q126 161 297 183q4 -11 14.5 -29t3.5 -41q-7 -21 -32 -25h-3q-22 -4 -26 -18q-109 -66 -143 -95q-77 -70 -118 -147q-29 -10 -46 23t-13 62z" />
<glyph unicode="&#xb8;" horiz-adv-x="1127" d="M-25 279q0 106 50 292q283 598 632 727q109 14 168 -75.5t59 -203.5q0 -52 -16 -92q52 -73 23 -175l-100 -301q-62 -195 -64 -301q-18 -14 -20 -28q0 -7 4 -16q-15 -102 -92 -330q-62 -186 -69 -347h-11q-4 -52 -44 -129t-47 -125q-77 -210 -99 -256q-70 -151 -163 -220 q-25 -11 -46 -11q-49 0 -111 46v115q44 -32 73 -34q18 0 27 16q175 256 259 623q36 158 144 659q-45 -36 -147 -102q-48 -41 -122 -40q-88 0 -186 54q-102 90 -102 254zM132 301q0 -99 27 -134t127 -42q129 41 274 263l4 15q7 21 -14 30q0 95 121 358q7 45 29 111 q45 133 30 176q-14 44 -77 37q-252 -150 -411 -462l-8 8q-102 -203 -102 -360z" />
<glyph unicode="&#xbb;" horiz-adv-x="2362" d="M98 1312q0 29 24 48q14 4 25 0v8q14 25 36 25q10 0 26 -4l51 -12q35 -9 55 -6q84 0 426 -21q18 0 140 -24q52 8 134 -3q102 -15 136 -15q55 -3 168 -17l213 -22q11 253 -55 480q3 45 62 55q85 -91 235 -293l64 -66l65 -67l347 -367q4 -55 -36 -91l-84 -77 q-21 -29 -77 -70q-29 -41 -73 -91l-11 -7q-18 -11 -18 -34l-106 -118q-50 -58 -93 -156q-14 -32 -32 -66h-20q4 -7 8 -11q7 -25 0 -45q-11 -25 -36 -21q-25 -4 -56 48q-25 91 -32 385q-3 18 -23 39q-36 7 -109 7q-70 0 -169 -7q-121 -18 -356 -39q-48 -4 -154 -27l4 4h-7 q-22 0 -81 -11t-88 -7q-44 3 -128.5 -11t-123.5 -11q-14 15 -23 43l3 -50q4 -7 4 -23l-25 -25q-11 -7 -18 -7q-14 0 -22 14h-19q0 157 -22 469q0 -4 -3 -14q3 -8 3 -18v-18q-3 -7 -3 -13v-3l3 -4q7 -25 7 -46l-7 -63l4 -7l-4 -70v-52q7 -45 -3 -84q-4 -22 3 -39 q-7 -29 -25 -31q-7 0 -16 4l-7 -7q-11 3 -25 26h4l-18 8q-25 98 -15 291q18 301 -27 437zM256 1273q29 -81 52 -244q-4 -70 11 -281q44 -18 62 -55l4 -7v-8l392 33q25 7 107 16q25 3 183 28q102 18 182 15q22 0 74 10q18 0 122 11q69 7 119 0q11 22 34 23q11 0 22 -3 q25 -36 31.5 -89.5t13.5 -109.5q-7 -7 -4 -21v-4h7l-7 -73l-7 -4h11v-37q0 -15 10 -25v-45q36 73 113 184l283 315q25 25 84 95l-7 7l-11 22q0 3 -7 3l-11 13q-18 18 -26 32q-77 84 -239 245q-10 7 -94 104q-29 29 -99 109q-25 29 -73 74q10 -22 18 -106q3 -45 0 -66 q0 -18 7 -52q14 -195 7 -263q-11 -11 -63 -13q-14 15 -25 70q-3 14 -18 13q-62 3 -188 21q-21 7 -80 7l-11 7q-77 4 -234 25h-29q0 8 -11 8v-4q-28 14 -86 9q-238 25 -399 29l-7 -8q-84 0 -213 4v-14z" />
<glyph unicode="&#xd6;" horiz-adv-x="1945" d="M122 444q0 326 329 818q7 14 172 256q206 297 524 480q231 66 319 66q84 0 143 -41h52q235 -256 235 -553q0 -74 -15 -151q-7 -7 -7 -14q0 -11 3.5 -33.5t3.5 -32.5q-7 -15 -27 -33q-44 -216 -248 -488q-22 -18 -70 -120q-322 -326 -430 -412q-279 -220 -526 -218 q-32 0 -66 3q-56 15 -147 77q-245 113 -245 396zM319 455q0 -330 275 -330q210 0 462 231q186 140 210 197q157 158 248 301q195 304 194 619q0 109 -25 206q10 29 -24.5 60t-34.5 53l-67 59q-32 29 -70 30q-14 0 -28 -3l7 -16l-43 -43q-11 44 -34 46q-81 0 -190 -80 q-80 -63 -143 -77q-646 -659 -737 -1253zM1169 2390q0 102 84 103q29 -7 57.5 -16.5t35.5 -42.5v-52q-11 -105 -114 -116q-56 32 -56 54q-7 41 -7 70zM1672 2382q0 77 66 77q22 -3 44 -10t26 -33v-41q-7 -80 -88 -87q-41 25 -41 39q-7 34 -7 55z" />
<glyph unicode="&#xf6;" horiz-adv-x="900" d="M-102 231q18 95 81 224l105 209q29 29 79 95t97 88q51 69 143 80q32 -11 114 56q15 14 50 36q99 0 144 -22q102 -91 103 -267q0 -91 -26 -188q-29 -73 -106 -216q-29 -11 -48 -50q-33 -52 -36 -59q-48 -56 -158 -136q-112 -133 -304 -133q-52 0 -104 16q-120 77 -134 267 zM63 132q21 -41 62 -48q382 70 553 557v107v56q4 14 4 3q-7 77 -59 109l-116 -41l28 -43l-7 -105q-11 -66 -45 -97q-18 -7 -32 -7q-41 0 -48 104v10q-32 -10 -87.5 -65.5t-81.5 -70.5q-112 -189 -125 -223q-57 -127 -46 -246zM217 1400q0 102 84 104q28 -8 56 -17.5 t35 -41.5v-52q-11 -106 -113 -117q-55 32 -55 54q-7 41 -7 70zM571 1393q0 77 66 77q22 -4 44 -11t26 -32v-42q-7 -80 -88 -87q-41 25 -39 41q-9 32 -9 54z" />
<glyph unicode="&#x2c6;" horiz-adv-x="1770" d="M113 1375v21q0 15 5 27q4 45 61 73q102 77 286 88q8 -3 15 -3h14q36 0 115 -24q3 49 35 129l-7 14h-3q-4 -3 -8 -3q-125 -18 -161 3q-73 45 -125 129l-3 11q-8 7 -15 29l7 -11q-3 14 -3 30q0 45 34 106q18 22 70 59q3 4 10 4h4q-7 55 -7 102q25 66 53 84l9 7q15 25 47 34 q36 25 122 39q7 0 21 6.5t22 6.5q52 21 111 11q7 0 21 3q11 0 14 -3h38v-7q98 -15 131 -115q10 7 27 21q76 60 153 86q11 11 22 11l7 4h14q11 10 38 10h4q14 4 32 11h16q3 0 11 4l7 -4q14 7 25 4h7q11 3 27 0h25q4 -4 14 0l38 -7q11 7 18 0h7q29 -4 84 -29q7 0 18 -9 q66 -48 84 -134q14 -22 16 -77q4 -29 25 -34q151 -95 151 -238v-84l-8 -8h4v-3l-14 -45l-13 -14l-7 -18l-32 -34q-7 -4 -15 -11l-3 -3l-52 -40h36q-63 -14 -158 -34l-25 -11h-3l32 -25q52 -35 45 -103q0 -11 -45 -88q-77 -66 -138 -81l-16 -3q-11 0 -81 -25q-14 7 -28 0 q-18 -8 -29 -8l-12 -7h-51q-10 0 -21 -3q14 -7 14 -31q-7 -28 -7 -43q-7 -28 -16 -44q-4 -56 -47 -129q0 -11 -10 -22q-7 -25 -70 -52q11 52 50 167q25 73 30 123q4 7 4 15v9q-21 -4 -38 -4h-25q-3 -4 -14 -5q-18 -4 -34 0q-52 0 -150 9q-11 7 -54 -9q-11 10 -55 19h-36 q-7 4 -24 4h-14l-52 7q-32 4 -46 0l-15 7l4 -3h-9q-4 0 -14 3h-15q-21 0 -69 7q3 0 -67 15l4 -15l-7 -18q3 0 3 4v-11q4 -3 -3 -20t-18 -46q-4 -7 -11 -14q-7 -25 -73 -104q-11 41 -4 70l4 14q10 25 19 59t29 91q-36 4 -103 19t-63 15q-11 8 -22 8l-21 3q-25 4 -45 22 q-11 3 -59 59zM168 818q-7 36 0 50l4 13v10q7 36 30 106q15 11 32 11l22 -18q11 -18 4 -38q-8 -18 -26 -77q-3 -3 -8.5 -14t-8.5 -14q-8 -22 -49 -29zM179 1403q0 -3 4 -14q25 -29 170 -63q161 -35 311 -50q367 -36 491 -34q14 7 17 7q85 15 258 38q190 52 190 143 q-18 49 -50 50q-18 22 -48 27q-60 22 -180 22q-21 10 -30 52q18 28 45 28q59 -7 43 -7q28 -7 73 -7q66 0 170 18q7 0 14.5 3.5t42.5 14.5q4 3 15 7q98 52 114 107q11 22 11 56q0 25 -7 61q0 14 -11 37q-11 41 -55 84l-7 7l-40 26v-26l-34 18q-11 67 -48 185q-4 52 -61 84 l-55 21q-52 8 -99 8q-66 0 -132 -11q-8 -4 -11 -7l-18 -8q-11 -3 -30 -3q-26 -14 -77 -38q-11 -3 -33 -25q-7 0 -16 -7l-7 -7q-18 -11 -50 -45l-14 -14q-4 -4 -13 -7q-3 -22 -18 -22q-7 0 -21 11q7 7 10 4l-28 25q11 32 -13 87q-7 22 -43 34q-32 0 -41 7h-3q-8 4 -61 0 q-84 -3 -160 -25q-10 -10 -25 -12l-14 -4q-7 -3 -66 -36l-7 -10v-4q-18 -14 -38 -66v-18q7 0 13 -16l10 -18q4 -14 29 -32q-4 -18 0 -52q0 -45 -14 -59l-33 14q8 -3 8 -18h-4q-21 11 -23 49v17h-4q-14 -7 -25 -7q-59 -44 -59 -87q0 -42 73 -115q29 -29 85 -29q59 0 84 25 l7 4q7 14 34 16q21 -7 25 -34q32 29 55 41q110 52 197 50q52 0 83 -21q18 25 46 77q56 48 118 63q70 14 147 -22l7 -9h-3l14 -11q0 -3 18 -23t18 -43l-7 -11h3q0 -14 -14 -28q-22 0 -32 11l-4 3q-25 59 -89 66q-49 0 -68 -10h-4q-4 -4 -9 -4q-29 -14 -54 -41 q-25 -52 -48 -120q-25 -4 -63 32q-10 11 -87 22l-129 -33q-129 -77 -120 -198q-4 -4 -4 -15l4 -10q3 -11 3 -18q0 -11 -7 -18l-3 3v-19q-7 -7 -24 -7q18 0 -80 30q-18 4 -57 14h-67q-25 0 -77 -14q-7 0 -24 -6.5t-28 -6.5q-35 -10 -98 -50l-7 -3q-2 -6 -27 -31zM224 367 q3 45 21 132q11 33 31 102q10 11 25 11q10 0 21 -3l4 -11v3q14 -10 14 -25q-14 -66 -43 -132l-11 -34l-7 -11q0 -7 -7 -25zM392 804q18 48 63 172q14 35 48 136q18 7 32 3h4l11 -3q10 -11 10 -27v3l4 -18q-7 -14 -19.5 -50.5t-45.5 -103.5v-3q11 25 22 45q-11 -22 -31 -63 l-42 -88l-26 -12h11q-3 -4 -11 -4q-12 2 -30 13zM623 598q7 18 21 150l17 40q21 21 42 7q15 -11 15 -32v-15q-4 -25 -25 -77v-10l-7 -17v-3l-4 -7h-4q-7 -29 -55 -36zM766 1026q0 14 4 30q0 4 3 7q11 36 34 117q18 14 47 9q14 -15 14 -49q-7 -28 -39 -105q-11 -29 -49 -59 q-14 21 -14 50zM884 571q-7 21 77 317q7 21 36 14q22 -3 22 -27v-21q-26 -84 -88 -256l-11 -4h4v-3q-8 -13 -40 -20zM1192 542q4 67 29 144q18 59 32 118q11 21 38 18q28 -22 25 -49q0 -10 -40 -112q-3 -15 -8.5 -32t-5.5 -13q-7 -15 -70 -74zM1403 564q4 66 49 202 q41 7 52 -7q7 -32 3 -45q-3 -11 -11 -25l-12 -18v-3l66 84l-84 -122l-4 -14q-10 -24 -59 -52zM1441 1067v3q4 -3 46 136q11 8 27 8q15 0 29 -4q4 -32 -4 -52v-3q4 -15 -43 -88q-17 -29 -37 -29l-14 36q0 -4 -4 -7zM1581 1554l21 -15h4h3q-25 15 -28 15zM1598 1536l8 3h-4z " />
<glyph unicode="&#x2da;" horiz-adv-x="853" d="M-154 383q7 150 59 245q32 129 193 245q36 18 104 42q29 7 50 0l20 3q91 -52 116 -165q4 -21 4 -41q-4 -3 -4 -7q4 -3 7 -14q-3 -7 -7 -11q-3 -113 -46 -183q-8 -7 -13 -19l-7 -18q-88 -109 -120 -143q-91 -88 -188 -99q-18 0 -58 9t-77 58.5t-33 97.5zM-59 412 q18 -70 80 -70q14 0 36.5 4.5t52 9.5t57.5 34t60 73q125 151 98 276q-7 29 -21 54q0 7 -12.5 13t-12.5 14l-27 10q-14 4 -25 4q-4 -4 -11 -4l4 -3l-11 -15q-7 11 -14 11l-20 -7q-25 -21 -84 -59q-150 -188 -150 -345z" />
<glyph unicode="&#x2dc;" horiz-adv-x="3587" d="M45 -109q-7 32 9 79.5t16 70.5q41 84 462 770l213 358q48 59 115 187t112 183q-4 25 11 45l28 36q0 25 -3 38q28 7 41 32l7 18q22 59 84 44q56 -21 49 -143q-4 -21 -20 -39l7 3q18 52 90 106v-4q21 49 89 110.5t90 99.5q51 59 359 315q49 11 70 -38q11 -25 14 -32 q-21 -106 -91 -216q-62 -92 -129 -203q-14 -11 -91 -130q-7 -15 -45 -63q-14 0 -21 -22.5t-15 -29.5q-118 -147 -173 -263q-36 -45 -99 -143h-14l-265 -389q-157 -227 -501 -920q-18 -32 -81 -199q52 63 124 180q84 136 122 184l44 91q118 165 204 312q29 35 63 118 q48 52 109 164q52 67 133 187q55 59 139 191q59 74 183 210q29 32 73 94q154 176 423 392q28 -7 52 -41v-7l3 -3l25 -11q-62 -140 -308 -480q-17 -25 -69 -77q-25 -55 -165 -209q0 -25 -41 -59v-11q-99 -109 -249 -329q-133 -196 -403 -643l-114 -190q-33 -70 -77 -209 q32 18 136 181q41 69 114.5 169.5t178.5 284.5q4 22 46 76.5t46 95.5q48 29 118 165q10 21 46 55q22 63 93.5 165t98.5 150q7 18 36 36l10 7q18 7 20 27l7 4q-7 21 21.5 52.5t28.5 38.5q118 150 367 433l154 147q7 3 35 19.5t46 16.5q70 0 70 -81q0 -32 -18 -70l-260 -402 q-14 -18 -52 -56q-11 -32 -95 -116v-20l-19 -18h3q0 -14 -28 -39q-15 -32 -67 -93q-14 -18 -179 -256q-18 -22 -121 -195q0 -22 -22 -40l-18 -18q-21 -28 -136 -243q-139 -249 -238 -458q-11 -33 -48 -99q3 -32 -22 -91q-7 -56 0 -81q7 0 18 18q45 36 63 63l113 157l146 246 q11 32 67 87q59 126 103 181l6 32q5 33 34 42l98 161l13 21l11 25l32 52l224 349q41 66 275 355q88 109 227 250q45 25 74 -20l7 -10q7 -15 32 -18q-3 -36 -31 -91.5t-28 -80.5q-11 -11 -154 -261l-116 -194l-367 -601q0 -4 -32 -77q-256 -553 -240 -612q29 21 63 84 q44 77 59 91q35 66 102 206q14 4 23 39q7 15 14 24q88 164 274 454l163 256q52 59 138 183q14 3 37 41l11 18q11 25 41 45q36 59 151 161q35 -7 61 -63q3 -7 19 -18q-25 -139 -139 -342q0 -21 -15 -39l-12 -14q-7 0 -7 -8q-15 -48 -74 -121q-66 -88 -84 -126 q-59 -112 -88 -146q-21 -56 -179 -323q0 -10 -3 -21l14 21q95 196 165 290q14 8 70 99l259 338q74 74 104 70q11 -4 32 -45q4 -14 34 -14q4 -165 -77 -353q7 -18 -3 -32q-8 -52 -77 -177q-22 -36 -38 -84l-7 -22h-7v-44h-34l-7 -15q-52 -109 -70 -186q-7 -21 -29 -125 q-21 -88 -21 -127q0 -33 7 -56l3 4q4 0 11 7l315 455l231 352l18 7h-4l8 4q7 7 19 7q7 0 18 -3q14 -29 63 -74q-22 -80 -56 -245q-7 0 -18 -5l-3 -11q0 -22 -14 -32q0 -29 -24 -60h20q-18 -17 -48 -80q-11 -14 -31 -32v-24q-14 -7 -21 -32t-12.5 -31t-13 -44.5t-33.5 -42.5 v-18q35 22 143 210l-50 -111l7 9q190 268 435 350q7 11 41 22h7l11 12q66 29 206 65q7 14 32 16h7l-3 -4l30 4q25 41 39 39q11 0 24 -10q14 7 57 7q-36 -84 -106 -91l-198 -92q-119 -55 -183 -118q-172 -109 -231 -204q-21 -7 -32 -27l14 -14q-32 -22 -129 -140 q-77 -87 -171 -73q-49 7 -67 55q-3 7 -18 92q11 59 40 146l-40 -66q-14 0 -20 -18t-6 -21q-140 -217 -249 -258q-59 -11 -106 34q4 18 -13 36t-17 21q-4 33 -4 70q0 102 73 356q56 84 74 172q11 11 14 23l4 18q3 8 7 18q95 206 166 437l-320 -419q0 -11 -7 -18l-11 -21 q-7 -11 -7 -45q-25 -4 -25 -43q0 -14 -38.5 -71.5t-42.5 -102.5q-28 0 -37 -32q-7 -14 -15 -25q-51 -118 -179 -345q-14 -18 -29 -40.5t-40 -18.5q-45 -11 -67 10q-48 45 -21 101q7 32 32 98q45 84 115 260q10 7 10 19l4 11q0 32 25 39q7 18 41 77q32 45 54 206v-52 q-4 -25 -4 -28l8 7l198 345q-3 18 16 45l20 29q32 66 107 186q0 21 23.5 56t19.5 58l4 8q-423 -518 -784 -1266q-36 -98 -120 -132q-59 -22 -100 59q-11 25 -11 48q0 29 17 82.5t21 71.5q48 113 123 277q45 102 176.5 369t285.5 526l100 176q14 3 21.5 27.5t14.5 31.5 q14 32 59 95q4 14 36 77l3 9q-55 -52 -130 -147q-161 -195 -265 -353q0 -7 -22 -36l-14 -16q0 -14 -34 -46l-7 -7l-7 -13q-4 -3 -4 -7q-98 -143 -186 -304l-301 -512q-11 -18 -41 -77l-123 -195q-77 -110 -151 -172q-21 -15 -45 -15q-17 0 -35 11q-49 11 -70 70l14 113 q11 73 40 100q7 70 51 149l77 143q4 18 238 426q106 190 206 336q74 113 221 308q3 18 25 49l7 7q10 10 10 28q49 45 98 131t76 116q59 88 168 267q18 18 33 45q-81 -70 -364 -381q-66 -88 -204 -262q0 -25 -34 -57l-7 -9q-14 -14 -18 -32q-80 -118 -136 -220 q-25 -42 -116 -162q-49 -118 -115 -189q0 -25 -18 -45l-7 -7q-7 -7 -7 -22q-73 -84 -84 -136q-63 -69 -151 -213q-94 -164 -139 -223q0 -8 -31 -43l-10 -9q-8 -11 -15 -25q-28 -25 -59 -25q-14 0 -25 3l-14 11v-4q-7 4 -14 4q-45 7 -34 48q-11 66 30 154l64 142l247 404 q92 154 285 451q48 77 408 564q25 45 158 224q7 28 32 36q7 17 23 51l-66 -66q59 74 73 84q0 -3 -7 -18l29 31l-7 3q-77 -69 -221 -220q-28 -32 -76 -104q-29 -21 -81 -91q-45 -36 -105 -126t-97 -123q-11 -25 -81 -102q-18 -55 -66 -111q-4 -7 -113 -179l-206 -327 q-143 -242 -206 -337q0 -10 -14 -39l-7 -9q-7 -4 -7 -11q0 -11 11 -21l-99 -151q-55 -80 -147 -80q-25 11 -59 66q109 388 466 968l279 446h-4q45 77 165 269l345 501q36 59 142 247q41 48 59 88q-140 -110 -508 -528q-4 -4 -17 -18l-17 -27q-18 -25 -49 -54q-7 0 -11 -7 l-3 -5l-4 -8q-7 -7 -21 -18q3 -28 -22 -51q-28 -33 -34 -40q-3 -32 -50 -62q-21 -15 -16 -40l-36 -37v-4q0 -29 -25 -45v-7q-3 -11 -37 -36l-4 4q-7 -4 -14 -11q-4 -25 -34 -98q-22 10 -36 -20q7 -4 14 -14q-3 -7 -14 -22q-7 0 -7 -7h-38v-30q4 -29 4 -58l16 -19h-16l3 -11 l-10 11h-4q-11 0 -21 3v-21h-8q0 -7 -7 -7l-3 -8v8l-27 -15v-10q-4 -8 -4 -13v5q-66 -62 -43 -139h-27q0 -15 -14 -38q-77 -125 -140 -245q-21 -45 -112 -172q-63 -143 -165 -224l-38 7l-14 8q-7 0 -11 3q-28 13 -28 38zM234 147l4 3q59 84 143 249q-14 -21 -36.5 -50.5 t-25.5 -54.5l-11 -8q-25 -44 -74 -139zM396 422l17 40h-7l4 -7h-4l-3 -4zM612 773l22 31l3 10l-7 -10q-7 -13 -18 -31zM721 934q8 8 16 11v23q-8 -16 -16 -34zM748 872l7 -7v10zM780 958l15 10h-4v4v4l-11 14v-32zM780 1029l4 -3q4 7 4 16zM945 1276l13 11q0 7 3 14z M1029 1416q59 70 70 88q11 3 27 21l7 11q0 3 4 7l-4 -4q-11 11 -14 11q-34 -46 -90 -134zM1276 1665l11 -11q-4 11 0 14q-4 -3 -11 -3z" />
<glyph unicode="&#x2013;" horiz-adv-x="1022" d="M14 14q22 70 88 77q98 11 115 15q157 41 494 41q112 0 282 -41l36 -36q0 -41 -25 -63q-549 11 -857 -62q-81 10 -133 69z" />
<glyph unicode="&#x2014;" horiz-adv-x="1337" d="M45 884q25 70 87 77q99 11 113 15q294 77 867 77q112 0 207 -24l38 -39q0 -29 -27 -63q-179 4 -523 -25q-406 -32 -632 -88q-71 11 -130 70z" />
<glyph unicode="&#x2018;" horiz-adv-x="168" d="M45 1847q-7 49 0 111q3 49 10.5 105t35.5 158q0 8 15.5 44.5t33.5 61.5l66 -25q-22 -36 -22.5 -72.5t-8.5 -56.5q-7 -36 -10 -113q-7 -44 -22 -154q-7 -55 -25 -66h-5q-4 -3 -11 -3l-4 -4q-28 -4 -53 14z" />
<glyph unicode="&#x2019;" horiz-adv-x="168" d="M32 2186q-11 59 4 73l5 4q4 0 7 3l4 4q14 7 32 7q11 0 25 -4q22 -41 34 -104q11 -48 20 -104.5t16 -161.5v-52q-4 -32 -14 -66l-70 3q7 22 7 41q0 18 -7 33q-11 41 -11 59q-3 41 -25 114z" />
<glyph unicode="&#x201a;" horiz-adv-x="658" d="M7 -337q0 11 5.5 29t28.5 32l7 8q22 14 25 34q113 171 140 220q66 129 77 248q21 22 55 22q60 0 81 -57q-14 -18 -16 -34q0 -29 -22 -117q-80 -272 -311 -436q-11 10 -40.5 20t-29.5 31z" />
<glyph unicode="&#x201c;" d="M45 1826q14 18 14 32q-4 29 22 118q77 272 311 437q11 -11 40.5 -21t29.5 -31q0 -11 -5.5 -29.5t-26.5 -33.5l-8 -7q-21 -14 -26 -32q-113 -172 -140 -220q-66 -129 -77 -251q-21 -21 -54 -21q-59 0 -80 59zM410 1826q14 18 16 32q-4 29 22 118q76 272 311 437 q11 -11 40.5 -21t29.5 -31q0 -11 -5.5 -29.5t-28.5 -33.5l-7 -7q-22 -14 -25 -32q-113 -172 -140 -220q-66 -129 -77 -251q-22 -21 -56 -21q-59 0 -80 59z" />
<glyph unicode="&#x201d;" d="M113 2050q52 112 66 270q7 55 7 286q7 18 -3 49l-4 10q-4 15 -4 25q0 11 4 24q7 52 48 35q25 -14 41 -10q52 -169 51 -335q0 -132 -36 -260q-25 -91 -37 -111.5t-12 -45.5q-21 -14 -39 -14q-68 0 -82 77zM378 2127q73 98 116 252q18 55 63 279q7 18 3 47v12q-3 29 11 47 q11 32 30 34q11 0 22 -7q21 -18 38 -20q7 -66 7 -127q0 -245 -108 -458q-41 -85 -57 -102t-16 -42q-45 -21 -77 7.5t-32 77.5z" />
<glyph unicode="&#x201e;" d="M7 -337q0 11 5.5 29t28.5 32l7 8q22 14 25 34q113 171 140 220q66 129 77 248q21 22 55 22q60 0 81 -57q-14 -18 -16 -34q3 -29 -22 -117q-77 -272 -311 -436q-11 10 -40.5 20t-29.5 31zM374 -337q0 11 5.5 29t26.5 32l7 8q22 14 27 34q113 171 140 220q66 129 77 248 q21 22 54 22q59 0 80 -57q-14 -18 -14 -34q3 -29 -22 -117q-77 -272 -311 -436q-11 10 -40.5 20t-29.5 31z" />
<glyph unicode="&#x2022;" horiz-adv-x="970" d="M186 1042q0 95 140 308q161 41 238 39q143 0 220 -95l-50 -275q-45 -158 -150 -224q-190 0 -217 9q-122 21 -150 127q-31 55 -31 111z" />
<glyph unicode="&#x2026;" horiz-adv-x="1084" d="M122 165q28 35 164 37q-14 -73 -14 -77q-14 -48 -41 -62q-56 -45 -106 -8q-59 40 -3 110zM349 220q70 -32 84 -34q32 7 61 20q32 3 56 -34q7 -25 -22 -106q-4 -7 4 -48q-42 14 -59 14q-77 0 -95 41q-7 18 0 52l7 11q5 14 -36 84zM661 109q0 29 42 97q52 11 74 11 q48 0 70 -31l-15 -84q-14 -52 -48 -70h-66q-41 7 -47 41q-10 18 -10 36z" />
<glyph unicode="&#x2039;" horiz-adv-x="1480" d="M36 517q0 253 73 525q11 41 52 39q14 0 22 -3h30q29 -88 29 -183q0 -66 -20 -202t-20 -203q0 -132 43 -392l63 -14q406 367 542 874q15 28 15 64q0 25 -9 79t-9 79q0 66 41 121q55 -41 113 -39q44 0 137.5 28.5t141.5 28.5q206 29 186 31q70 0 122 -38q7 -84 -66 -91 q-26 0 -70 -29q-77 -7 -229.5 -59t-232.5 -59q-22 -32 -41 -161q-15 -109 -65 -158q4 -48 -70 -195q-14 -28 -19 -80q-52 -7 -61 -50q-18 -81 -23 -85q-22 -28 -47 -34q-48 -125 -297 -347q-66 -18 -111 -19q-41 0 -102 19q-118 231 -118 553z" />
<glyph unicode="&#x203a;" horiz-adv-x="2506" d="M81 -345q0 28 84 77q55 25 111 55q69 45 134 129q102 136 104 363q0 74 -11 161q0 151 64 224v4q8 7 140 130q56 29 174 74q-56 44 -188 209q-109 109 -213 185q-32 17 -102 46l-25 -25l-13 -14q-36 -49 -102 -56q7 49 59 140q22 21 51.5 56t68.5 46q91 -22 313 -179 q45 -32 88 -108q56 -84 81 -109q32 -52 91 -150h3q0 -4 4 -4q106 92 269 92q87 0 168 -33q36 -7 73 -23q63 -45 172 -150q98 -183 98 -351q0 -217 -109 -335q-80 -122 -318 -304l-16 -4q-8 -7 -29 -18q-66 -55 -283 -136q-45 -18 -178 -47.5t-434 -21.5q-29 -4 -102 5 q-22 0 -77.5 14.5t-83.5 10.5l-18 11h-11q-34 0 -37 36zM301 -311h18q25 -4 69 -15q183 -7 260 -3q557 28 936 483q32 41 81 132q32 88 32 172t-29 165q-28 140 -202 245q-98 32 -190 34q-73 0 -132 -21q-25 0 -65.5 -22.5t-56.5 -26.5v-10q-3 -18 38 -111q105 -242 95 -417 q-4 -33 -11 -60q0 -41 -18 -66q3 -48 -38 -123q-18 -32 -77 -52q15 62 34 168q25 77 25 161q0 176 -118 408q-3 7 -32 50q-11 11 -25 4q-59 -21 -161 -81q-143 -112 -143 -263q0 -21 7 -66t9 -78t2 -69q0 -109 -49 -248q4 -22 -18 -45l-7 -7q-7 -15 -7 -22 q-25 -52 -102 -132q-4 -4 -16 -7l-4 -8l-7 -7q-25 -27 -98 -62zM1389 1147q-7 92 115 276q14 22 77 73l14 -16q11 -10 11 -43h-18q-4 -14 -24 -26h-3q-18 -33 -57 -99q0 -11 -11 -32l-9 -11q-11 -11 -11 -29.5t-14 -50.5q11 -52 -40 -52q-16 0 -30 10zM1731 968 q18 49 123 92q33 14 88 43q29 7 81 37h34q0 -52 -29 -62q-45 -33 -140 -77q-35 -18 -111 -77q-32 12 -46 44zM1998 249q-11 28 14 52v-4q-4 0 -4 -3l27 14q168 -48 369 -176q-136 29 -154 36q-106 29 -120 31q-45 9 -132 50z" />
<glyph unicode="&#x20ac;" horiz-adv-x="1832" d="M-106 942q42 66 99 62q55 -3 80 -3h33q35 7 80 7v7l111 199q-190 -8 -367 -8q7 33 -11 67q-3 14 -3 28q0 29 29 49q136 14 436 21q4 7 5.5 9t5.5 9q129 227 256 349q319 433 601 568q172 28 255 -40q370 -311 483 -671q0 -45 -29 -45q-59 -3 -139 48q-36 22 -45 33 l-77 166q-48 102 -109 142q-118 139 -192 170q-36 14 -70 14q-32 -4 -64 -14l-20 -20l-154 -99q-91 -59 -127 -128q-209 -203 -390 -491h166q70 0 151 -3q122 -8 231 -67q14 -10 70 -21q-60 -74 -129 -70q-99 4 -126 4h-39q-25 -4 -38 -4l-43 11l-7 11q-105 -4 -320 -15 q-63 -118 -91 -198q139 0 359 -36q88 -15 133 -34l28 -43q-7 -32 -32 -59q-98 18 -240 25q-143 7 -307 0q-45 -122 -85 -296q-10 -329 231 -436q67 -29 161 -31q52 0 160 16l157 22l308 121l88 43q59 26 88 22q17 18 42 20h74l-4 -42q-32 4 -50 4q-25 0 -34 -7 q-21 -29 -43 -36l-143 -104q-91 -59 -161 -66q-91 -66 -254 -91q-136 -11 -271 -25q-195 21 -329 120q-150 112 -188 293q-18 56 -18 115q0 164 74 347q-22 -4 -63 -4t-63 -3q-71 18 -120 88z" />
<glyph unicode="&#x2122;" horiz-adv-x="878" d="M213 2152q29 17 59 17q14 0 49 -7t53 -3q74 3 242 14l3 -32q45 28 84 28q22 0 42 -7q-4 -21 7 -32l7 -11q7 -7 11 -18l7 4q48 22 122 39q7 -10 17 -28l11 -11q36 -45 15 -86q-36 -80 -77 -238q10 -7 10 -21q0 -15 -14 -36l-4 -34q-84 32 -94 73q-4 22 0 63l10 66 q29 56 45 109q-70 -36 -97 -36q-35 0 -64 33v7q-4 0 -4 3q-66 -87 -77 -200q-7 -11 -66 -20q-52 15 -52 66q0 11 41 115q15 36 58 98q-29 -3 -106 -17q0 -29 -38.5 -86.5t-40 -87t-61.5 -113.5q-51 52 -51 106q0 25 77 177q-29 0 -43 4q-45 -15 -67 25q-18 28 -14 77z" />
<glyph unicode="&#xe000;" horiz-adv-x="1070" d="M0 1070h1070v-1070h-1070v1070z" />
</font>
</defs>
</svg>
